<svg width="144" height="37" viewBox="0 0 144 37" fill="none" xmlns="http://www.w3.org/2000/svg">
<rect x="0.866699" y="0.86084" width="142.536" height="36" rx="10" fill="#3772FF"/>
<path d="M52.1904 17.5064H50.0128C49.9731 17.2247 49.8919 16.9744 49.7692 16.7557C49.6466 16.5336 49.4892 16.3447 49.2969 16.1889C49.1047 16.0332 48.8826 15.9138 48.6307 15.831C48.3821 15.7481 48.112 15.7067 47.8204 15.7067C47.2934 15.7067 46.8343 15.8376 46.4432 16.0994C46.0521 16.358 45.7489 16.7358 45.5334 17.233C45.318 17.7268 45.2103 18.3267 45.2103 19.0327C45.2103 19.7585 45.318 20.3684 45.5334 20.8622C45.7522 21.3561 46.0571 21.7289 46.4482 21.9808C46.8393 22.2327 47.2917 22.3587 47.8054 22.3587C48.0938 22.3587 48.3606 22.3206 48.6059 22.2443C48.8544 22.1681 49.0749 22.0571 49.2671 21.9112C49.4593 21.7621 49.6184 21.5815 49.7444 21.3693C49.8736 21.1572 49.9631 20.9153 50.0128 20.6435L52.1904 20.6534C52.134 21.1208 51.9932 21.5715 51.7678 22.0057C51.5457 22.4366 51.2458 22.8227 50.8679 23.1641C50.4934 23.5021 50.046 23.7706 49.5256 23.9695C49.0086 24.165 48.4236 24.2628 47.7706 24.2628C46.8625 24.2628 46.0505 24.0573 45.3346 23.6463C44.622 23.2353 44.0585 22.6404 43.6442 21.8615C43.2332 21.0826 43.0277 20.1397 43.0277 19.0327C43.0277 17.9224 43.2366 16.9778 43.6542 16.1989C44.0718 15.42 44.6385 14.8267 45.3544 14.4191C46.0704 14.0081 46.8758 13.8026 47.7706 13.8026C48.3606 13.8026 48.9075 13.8854 49.4113 14.0512C49.9184 14.2169 50.3675 14.4588 50.7586 14.777C51.1497 15.0919 51.4678 15.478 51.7131 15.9354C51.9617 16.3928 52.1208 16.9164 52.1904 17.5064ZM58.5913 20.8722V16.4872H60.7092V24.1236H58.6758V22.7365H58.5963C58.4239 23.184 58.1372 23.5436 57.7362 23.8154C57.3385 24.0871 56.8529 24.223 56.2795 24.223C55.7691 24.223 55.32 24.107 54.9322 23.875C54.5444 23.643 54.2412 23.3132 54.0224 22.8857C53.807 22.4581 53.6976 21.946 53.6943 21.3494V16.4872H55.8122V20.9716C55.8155 21.4224 55.9365 21.7787 56.1751 22.0405C56.4138 22.3023 56.7336 22.4333 57.1346 22.4333C57.3898 22.4333 57.6285 22.3753 57.8505 22.2592C58.0726 22.1399 58.2516 21.9643 58.3875 21.7323C58.5267 21.5003 58.5946 21.2136 58.5913 20.8722ZM68.757 18.6648L66.818 18.7841C66.7849 18.6184 66.7136 18.4692 66.6043 18.3367C66.4949 18.2008 66.3507 18.0931 66.1717 18.0135C65.9961 17.9307 65.7856 17.8892 65.5403 17.8892C65.2122 17.8892 64.9355 17.9588 64.7101 18.098C64.4847 18.2339 64.372 18.4162 64.372 18.6449C64.372 18.8272 64.4449 18.9813 64.5908 19.1073C64.7366 19.2332 64.9868 19.3343 65.3415 19.4105L66.7236 19.6889C67.466 19.8414 68.0195 20.0867 68.3841 20.4247C68.7487 20.7628 68.931 21.2069 68.931 21.7571C68.931 22.2576 68.7835 22.6967 68.4885 23.0746C68.1968 23.4524 67.7958 23.7474 67.2854 23.9595C66.7783 24.1683 66.1933 24.2727 65.5304 24.2727C64.5195 24.2727 63.7141 24.0623 63.1142 23.6414C62.5176 23.2171 62.168 22.6404 62.0652 21.9112L64.1483 21.8019C64.2113 22.1101 64.3637 22.3454 64.6057 22.5078C64.8476 22.6669 65.1575 22.7465 65.5354 22.7465C65.9066 22.7465 66.2049 22.6752 66.4303 22.5327C66.659 22.3869 66.775 22.1996 66.7783 21.9709C66.775 21.7787 66.6938 21.6212 66.5347 21.4986C66.3756 21.3726 66.1303 21.2765 65.7989 21.2102L64.4764 20.9467C63.7307 20.7976 63.1755 20.5391 62.8109 20.1712C62.4497 19.8033 62.269 19.3343 62.269 18.7642C62.269 18.2737 62.4016 17.8511 62.6668 17.4965C62.9352 17.1418 63.3114 16.8684 63.7953 16.6762C64.2825 16.4839 64.8526 16.3878 65.5055 16.3878C66.47 16.3878 67.229 16.5916 67.7825 16.9993C68.3394 17.407 68.6642 17.9621 68.757 18.6648ZM74.3264 16.4872V18.0781H69.7277V16.4872H74.3264ZM70.7717 14.6577H72.8896V21.777C72.8896 21.9726 72.9194 22.125 72.9791 22.2344C73.0388 22.3405 73.1216 22.415 73.2277 22.4581C73.337 22.5012 73.463 22.5227 73.6055 22.5227C73.7049 22.5227 73.8044 22.5145 73.9038 22.4979C74.0032 22.478 74.0795 22.4631 74.1325 22.4531L74.4656 24.0291C74.3595 24.0623 74.2104 24.1004 74.0182 24.1435C73.8259 24.1899 73.5923 24.2181 73.3172 24.228C72.8067 24.2479 72.3593 24.1799 71.9748 24.0242C71.5937 23.8684 71.297 23.6264 71.0849 23.2983C70.8728 22.9702 70.7684 22.5559 70.7717 22.0554V14.6577ZM79.0743 24.2727C78.302 24.2727 77.6342 24.1087 77.0707 23.7806C76.5106 23.4491 76.0781 22.9884 75.7731 22.3985C75.4682 21.8052 75.3157 21.1174 75.3157 20.3352C75.3157 19.5464 75.4682 18.857 75.7731 18.2671C76.0781 17.6738 76.5106 17.2131 77.0707 16.885C77.6342 16.5535 78.302 16.3878 79.0743 16.3878C79.8465 16.3878 80.5127 16.5535 81.0728 16.885C81.6363 17.2131 82.0705 17.6738 82.3754 18.2671C82.6803 18.857 82.8328 19.5464 82.8328 20.3352C82.8328 21.1174 82.6803 21.8052 82.3754 22.3985C82.0705 22.9884 81.6363 23.4491 81.0728 23.7806C80.5127 24.1087 79.8465 24.2727 79.0743 24.2727ZM79.0842 22.6321C79.4355 22.6321 79.7289 22.5327 79.9642 22.3338C80.1995 22.1316 80.3768 21.8566 80.4961 21.5085C80.6188 21.1605 80.6801 20.7645 80.6801 20.3203C80.6801 19.8762 80.6188 19.4801 80.4961 19.1321C80.3768 18.7841 80.1995 18.509 79.9642 18.3068C79.7289 18.1047 79.4355 18.0036 79.0842 18.0036C78.7296 18.0036 78.4313 18.1047 78.1893 18.3068C77.9507 18.509 77.77 18.7841 77.6474 19.1321C77.5281 19.4801 77.4684 19.8762 77.4684 20.3203C77.4684 20.7645 77.5281 21.1605 77.6474 21.5085C77.77 21.8566 77.9507 22.1316 78.1893 22.3338C78.4313 22.5327 78.7296 22.6321 79.0842 22.6321ZM84.2099 24.1236V16.4872H86.2284V17.8345H86.3179C86.477 17.3871 86.7421 17.0341 87.1133 16.7756C87.4845 16.5171 87.9287 16.3878 88.4457 16.3878C88.9694 16.3878 89.4152 16.5187 89.7831 16.7806C90.151 17.0391 90.3962 17.3904 90.5189 17.8345H90.5984C90.7542 17.397 91.0359 17.0474 91.4436 16.7855C91.8546 16.5204 92.3401 16.3878 92.9003 16.3878C93.6129 16.3878 94.1912 16.6148 94.6353 17.0689C95.0828 17.5197 95.3065 18.1593 95.3065 18.9879V24.1236H93.1936V19.4056C93.1936 18.9813 93.0809 18.6631 92.8555 18.451C92.6301 18.2389 92.3484 18.1328 92.0103 18.1328C91.6259 18.1328 91.3259 18.2555 91.1105 18.5007C90.895 18.7427 90.7873 19.0625 90.7873 19.4602V24.1236H88.7341V19.3608C88.7341 18.9863 88.6263 18.688 88.4109 18.4659C88.1988 18.2439 87.9187 18.1328 87.5707 18.1328C87.3354 18.1328 87.1233 18.1925 86.9343 18.3118C86.7487 18.4278 86.6013 18.5919 86.4919 18.804C86.3825 19.0128 86.3278 19.2581 86.3278 19.5398V24.1236H84.2099ZM102.338 13.9418V24.1236H100.22V13.9418H102.338ZM104.034 24.1236V16.4872H106.152V24.1236H104.034ZM105.098 15.5029C104.783 15.5029 104.513 15.3985 104.288 15.1896C104.066 14.9775 103.955 14.724 103.955 14.429C103.955 14.1373 104.066 13.8871 104.288 13.6783C104.513 13.4662 104.783 13.3601 105.098 13.3601C105.413 13.3601 105.681 13.4662 105.903 13.6783C106.129 13.8871 106.242 14.1373 106.242 14.429C106.242 14.724 106.129 14.9775 105.903 15.1896C105.681 15.3985 105.413 15.5029 105.098 15.5029ZM109.966 19.7088V24.1236H107.849V16.4872H109.867V17.8345H109.957C110.126 17.3904 110.409 17.0391 110.807 16.7806C111.204 16.5187 111.687 16.3878 112.253 16.3878C112.784 16.3878 113.246 16.5038 113.64 16.7358C114.035 16.9678 114.341 17.2993 114.56 17.7301C114.779 18.1577 114.888 18.6681 114.888 19.2614V24.1236H112.77V19.6392C112.774 19.1719 112.654 18.8073 112.413 18.5455C112.171 18.2803 111.837 18.1477 111.413 18.1477C111.128 18.1477 110.876 18.2091 110.658 18.3317C110.442 18.4543 110.273 18.6333 110.15 18.8686C110.031 19.1006 109.97 19.3807 109.966 19.7088ZM118.477 21.9262L118.482 19.3857H118.79L121.236 16.4872H123.667L120.381 20.3253H119.879L118.477 21.9262ZM116.558 24.1236V13.9418H118.675V24.1236H116.558ZM121.33 24.1236L119.083 20.7976L120.495 19.3012L123.811 24.1236H121.33Z" fill="white"/>
<path d="M34.5913 26.6857H25.5913V24.7295H33.5913V12.9922H23.5913V18.8608H21.5913V12.0141C21.5913 11.4742 22.0393 11.036 22.5913 11.036H34.5913C35.1433 11.036 35.5913 11.4742 35.5913 12.0141V25.7076C35.5913 26.2475 35.1433 26.6857 34.5913 26.6857Z" fill="white"/>
<path d="M31.5912 14.9484H25.5912L27.8842 17.1912L20.1772 24.7295L21.5912 26.1125L29.2982 18.5743L31.5912 20.817V14.9484Z" fill="white"/>
</svg>
