<svg width="197" height="41" viewBox="0 0 197 41" fill="none" xmlns="http://www.w3.org/2000/svg">
<rect x="0.251831" y="0.964905" width="196.691" height="39.2692" rx="12.2549" fill="#191B20"/>
<path d="M135.083 15.4485C135.083 12.6871 137.321 10.4485 140.083 10.4485H180.957C183.718 10.4485 185.957 12.6871 185.957 15.4485V28.22C185.957 30.9814 183.718 33.22 180.957 33.22H140.083C137.321 33.22 135.083 30.9814 135.083 28.22V15.4485Z" fill="#A3E3FF"/>
<path d="M151.415 18.1107V19.4667H149.183V26.4867H147.503V19.4667H145.271V18.1107H151.415ZM153.733 19.0467C153.437 19.0467 153.189 18.9547 152.989 18.7707C152.797 18.5787 152.701 18.3427 152.701 18.0627C152.701 17.7827 152.797 17.5507 152.989 17.3667C153.189 17.1747 153.437 17.0787 153.733 17.0787C154.029 17.0787 154.273 17.1747 154.465 17.3667C154.665 17.5507 154.765 17.7827 154.765 18.0627C154.765 18.3427 154.665 18.5787 154.465 18.7707C154.273 18.9547 154.029 19.0467 153.733 19.0467ZM154.561 19.8387V26.4867H152.881V19.8387H154.561ZM162.641 23.0187C162.641 23.2587 162.625 23.4747 162.593 23.6667H157.733C157.773 24.1467 157.941 24.5227 158.237 24.7947C158.533 25.0667 158.897 25.2027 159.329 25.2027C159.953 25.2027 160.397 24.9347 160.661 24.3987H162.473C162.281 25.0387 161.913 25.5667 161.369 25.9827C160.825 26.3907 160.157 26.5947 159.365 26.5947C158.725 26.5947 158.149 26.4547 157.637 26.1747C157.133 25.8867 156.737 25.4827 156.449 24.9627C156.169 24.4427 156.029 23.8427 156.029 23.1627C156.029 22.4747 156.169 21.8707 156.449 21.3507C156.729 20.8307 157.121 20.4307 157.625 20.1507C158.129 19.8707 158.709 19.7307 159.365 19.7307C159.997 19.7307 160.561 19.8667 161.057 20.1387C161.561 20.4107 161.949 20.7987 162.221 21.3027C162.501 21.7987 162.641 22.3707 162.641 23.0187ZM160.901 22.5387C160.893 22.1067 160.737 21.7627 160.433 21.5067C160.129 21.2427 159.757 21.1107 159.317 21.1107C158.901 21.1107 158.549 21.2387 158.261 21.4947C157.981 21.7427 157.809 22.0907 157.745 22.5387H160.901ZM165.788 20.8707C166.004 20.5187 166.284 20.2427 166.628 20.0427C166.98 19.8427 167.38 19.7427 167.828 19.7427V21.5067H167.384C166.856 21.5067 166.456 21.6307 166.184 21.8787C165.92 22.1267 165.788 22.5587 165.788 23.1747V26.4867H164.108V19.8387H165.788V20.8707ZM171.904 19.2867V17.7387H174.796V26.4867H173.068V19.2867H171.904Z" fill="#3772FF"/>
<path d="M46.1727 21.4093C46.1727 19.5639 46.482 18.1239 47.1007 17.0893C47.73 16.0439 48.8074 15.5213 50.3327 15.5213C51.858 15.5213 52.93 16.0439 53.5487 17.0893C54.178 18.1239 54.4927 19.5639 54.4927 21.4093C54.4927 23.2759 54.178 24.7373 53.5487 25.7933C52.93 26.8386 51.858 27.3613 50.3327 27.3613C48.8074 27.3613 47.73 26.8386 47.1007 25.7933C46.482 24.7373 46.1727 23.2759 46.1727 21.4093ZM52.7007 21.4093C52.7007 20.5453 52.642 19.8146 52.5247 19.2173C52.418 18.6199 52.194 18.1346 51.8527 17.7613C51.5114 17.3773 51.0047 17.1853 50.3327 17.1853C49.6607 17.1853 49.154 17.3773 48.8127 17.7613C48.4714 18.1346 48.242 18.6199 48.1247 19.2173C48.018 19.8146 47.9647 20.5453 47.9647 21.4093C47.9647 22.3053 48.018 23.0573 48.1247 23.6653C48.2314 24.2733 48.4554 24.7639 48.7967 25.1373C49.1487 25.5106 49.6607 25.6973 50.3327 25.6973C51.0047 25.6973 51.5114 25.5106 51.8527 25.1373C52.2047 24.7639 52.434 24.2733 52.5407 23.6653C52.6474 23.0573 52.7007 22.3053 52.7007 21.4093ZM57.3987 27.5053C57.068 27.5053 56.7907 27.3933 56.5667 27.1693C56.3427 26.9453 56.2307 26.6679 56.2307 26.3373C56.2307 26.0066 56.3427 25.7293 56.5667 25.5053C56.7907 25.2813 57.068 25.1693 57.3987 25.1693C57.7187 25.1693 57.9907 25.2813 58.2147 25.5053C58.4387 25.7293 58.5507 26.0066 58.5507 26.3373C58.5507 26.6679 58.4387 26.9453 58.2147 27.1693C57.9907 27.3933 57.7187 27.5053 57.3987 27.5053ZM61.2901 24.9133C62.3141 24.0279 63.1194 23.3026 63.7061 22.7373C64.3034 22.1613 64.7994 21.5639 65.1941 20.9453C65.5887 20.3266 65.7861 19.7079 65.7861 19.0893C65.7861 18.4493 65.6314 17.9479 65.3221 17.5853C65.0234 17.2226 64.5487 17.0413 63.8981 17.0413C63.2687 17.0413 62.7781 17.2439 62.4261 17.6493C62.0847 18.0439 61.9034 18.5773 61.8821 19.2493H60.1221C60.1541 18.0333 60.5167 17.1053 61.2101 16.4653C61.9141 15.8146 62.8047 15.4893 63.8821 15.4893C65.0447 15.4893 65.9514 15.8093 66.6021 16.4493C67.2634 17.0893 67.5941 17.9426 67.5941 19.0093C67.5941 19.7773 67.3967 20.5186 67.0021 21.2333C66.6181 21.9373 66.1541 22.5719 65.6101 23.1373C65.0767 23.6919 64.3941 24.3373 63.5621 25.0733L62.8421 25.7133H67.9141V27.2333H60.1381V25.9053L61.2901 24.9133ZM81.4167 24.2253C81.4167 24.7586 81.2834 25.2599 81.0167 25.7293C80.7607 26.1986 80.3767 26.5933 79.8647 26.9133C79.3634 27.2333 78.766 27.4253 78.0727 27.4893V28.7853H77.0327V27.4893C76.03 27.3933 75.2194 27.0786 74.6007 26.5453C73.982 26.0119 73.6727 25.3079 73.6727 24.4333H75.6247C75.6567 24.8493 75.79 25.1959 76.0247 25.4733C76.2594 25.7399 76.5954 25.9106 77.0327 25.9853V22.4653C76.318 22.2839 75.7367 22.1026 75.2887 21.9213C74.8407 21.7293 74.4567 21.4306 74.1367 21.0253C73.8274 20.6199 73.6727 20.0653 73.6727 19.3613C73.6727 18.4759 73.982 17.7453 74.6007 17.1693C75.2194 16.5826 76.03 16.2413 77.0327 16.1453V14.8493H78.0727V16.1453C79.0114 16.2306 79.7634 16.5293 80.3287 17.0413C80.9047 17.5426 81.23 18.2359 81.3047 19.1213H79.3527C79.3207 18.7906 79.1927 18.4973 78.9687 18.2413C78.7447 17.9746 78.446 17.7933 78.0727 17.6973V21.1533C78.7874 21.3239 79.3687 21.5053 79.8167 21.6973C80.2647 21.8786 80.6434 22.1719 80.9527 22.5773C81.262 22.9719 81.4167 23.5213 81.4167 24.2253ZM75.5287 19.2653C75.5287 19.7026 75.6567 20.0439 75.9127 20.2893C76.1794 20.5346 76.5527 20.7319 77.0327 20.8813V17.6493C76.574 17.7026 76.206 17.8679 75.9287 18.1453C75.662 18.4226 75.5287 18.7959 75.5287 19.2653ZM78.0727 25.9853C78.542 25.9106 78.91 25.7239 79.1767 25.4253C79.4434 25.1159 79.5767 24.7479 79.5767 24.3213C79.5767 23.8946 79.4434 23.5639 79.1767 23.3293C78.9207 23.0839 78.5527 22.8866 78.0727 22.7373V25.9853ZM89.423 21.8413L92.879 27.3933H90.831L88.319 23.3613L85.9669 27.3933H83.9349L87.391 21.8413L83.9189 16.2733H85.9669L88.495 20.3373L90.863 16.2733H92.8949L89.423 21.8413ZM103.121 16.2733L99.4415 23.3613V27.3933H97.6174V23.3613L93.9214 16.2733H95.9534L98.5294 21.7293L101.105 16.2733H103.121ZM106.329 25.8093H111.497V27.3933H104.169V25.9693L109.321 17.8573H104.169V16.2733H111.497V17.6973L106.329 25.8093Z" fill="white"/>
<path d="M32.3966 23.3811H28.3446C26.8568 23.3804 25.6509 22.4166 25.6499 21.2267C25.6499 20.0368 26.8568 19.073 28.3446 19.0723H32.3966" stroke="#3772FF" stroke-width="1.25176" stroke-linecap="round" stroke-linejoin="round"/>
<path d="M28.8029 21.1774H28.491" stroke="#3772FF" stroke-width="1.25176" stroke-linecap="round" stroke-linejoin="round"/>
<path fill-rule="evenodd" clip-rule="evenodd" d="M18.4926 14.2585H27.144C30.0448 14.2585 32.3965 16.1394 32.3965 18.4594V24.2048C32.3965 26.5249 30.0448 28.4057 27.144 28.4057H18.4926C15.5918 28.4057 13.2401 26.5249 13.2401 24.2048V18.4594C13.2401 16.1394 15.5918 14.2585 18.4926 14.2585Z" stroke="#3772FF" stroke-width="1.25176" stroke-linecap="round" stroke-linejoin="round"/>
</svg>
