<svg width="104" height="43" viewBox="0 0 104 43" fill="none" xmlns="http://www.w3.org/2000/svg">
<g filter="url(#filter0_d_1760_305)">
<rect x="4.34033" y="0.513031" width="95" height="33.8314" rx="10" fill="#A3E3FF"/>
<path d="M18.3446 22.7808V12.599H22.2423C22.9781 12.599 23.5896 12.715 24.0768 12.947C24.5674 13.1757 24.9336 13.4889 25.1756 13.8866C25.4208 14.2844 25.5435 14.7351 25.5435 15.2389C25.5435 15.6532 25.4639 16.0079 25.3048 16.3028C25.1457 16.5945 24.932 16.8315 24.6635 17.0138C24.395 17.1961 24.0951 17.327 23.7636 17.4065V17.506C24.1249 17.5259 24.4713 17.6369 24.8027 17.8391C25.1374 18.0379 25.4109 18.3196 25.623 18.6842C25.8351 19.0488 25.9412 19.4896 25.9412 20.0067C25.9412 20.5337 25.8136 21.0076 25.5584 21.4285C25.3032 21.8462 24.9187 22.1759 24.405 22.4179C23.8912 22.6598 23.2449 22.7808 22.466 22.7808H18.3446ZM20.1891 21.2396H22.1727C22.8422 21.2396 23.3245 21.112 23.6195 20.8568C23.9177 20.5983 24.0669 20.2669 24.0669 19.8625C24.0669 19.5609 23.9923 19.2891 23.8432 19.0472C23.694 18.8019 23.4819 18.6097 23.2068 18.4705C22.9317 18.3279 22.6036 18.2567 22.2224 18.2567H20.1891V21.2396ZM20.1891 16.9293H22.0136C22.3318 16.9293 22.6185 16.8713 22.8737 16.7553C23.1289 16.6359 23.3294 16.4686 23.4753 16.2531C23.6244 16.0344 23.699 15.7759 23.699 15.4776C23.699 15.0831 23.5598 14.7583 23.2814 14.5031C23.0063 14.2479 22.597 14.1203 22.0534 14.1203H20.1891V16.9293ZM32.3334 19.5692V15.1445H34.1331V22.7808H32.3881V21.4236H32.3085C32.1362 21.8511 31.8528 22.2008 31.4584 22.4726C31.0673 22.7444 30.5851 22.8803 30.0117 22.8803C29.5112 22.8803 29.0687 22.7692 28.6843 22.5472C28.3031 22.3218 28.0048 21.9953 27.7894 21.5678C27.5739 21.1369 27.4662 20.6165 27.4662 20.0067V15.1445H29.2659V19.7283C29.2659 20.2122 29.3985 20.5966 29.6637 20.8817C29.9288 21.1667 30.2768 21.3092 30.7077 21.3092C30.9728 21.3092 31.2297 21.2446 31.4783 21.1153C31.7269 20.9861 31.9307 20.7938 32.0898 20.5386C32.2522 20.2801 32.3334 19.957 32.3334 19.5692ZM37.1024 25.6445C36.8571 25.6445 36.6301 25.6246 36.4213 25.5848C36.2158 25.5483 36.0517 25.5053 35.9291 25.4555L36.3467 24.0536C36.6086 24.1298 36.8422 24.1662 37.0477 24.1629C37.2532 24.1596 37.4338 24.095 37.5896 23.969C37.7487 23.8464 37.8829 23.6409 37.9923 23.3526L38.1464 22.9399L35.3773 15.1445H37.2864L39.0463 20.9115H39.1258L40.8908 15.1445H42.8048L39.7473 23.7055C39.6048 24.1099 39.4159 24.4562 39.1805 24.7446C38.9452 25.0363 38.6569 25.2583 38.3155 25.4108C37.9774 25.5666 37.573 25.6445 37.1024 25.6445ZM50.7842 24.0536V11.3263H51.5996V24.0536H50.7842ZM53.1358 15.398C53.0894 14.9638 52.8938 14.6258 52.5491 14.3838C52.2078 14.1419 51.7636 14.0209 51.2168 14.0209C50.8323 14.0209 50.5025 14.0789 50.2274 14.1949C49.9523 14.3109 49.7418 14.4683 49.596 14.6672C49.4502 14.866 49.3756 15.0931 49.3723 15.3483C49.3723 15.5604 49.4204 15.7444 49.5165 15.9001C49.6159 16.0559 49.7501 16.1885 49.9192 16.2979C50.0882 16.4039 50.2755 16.4934 50.481 16.5663C50.6864 16.6393 50.8936 16.7006 51.1024 16.7503L52.057 16.9889C52.4414 17.0784 52.811 17.1994 53.1656 17.3518C53.5236 17.5043 53.8434 17.6965 54.1251 17.9286C54.4102 18.1606 54.6355 18.4406 54.8013 18.7687C54.967 19.0969 55.0498 19.4813 55.0498 19.9222C55.0498 20.5187 54.8974 21.0441 54.5925 21.4982C54.2875 21.9489 53.8467 22.3019 53.27 22.5571C52.6966 22.809 52.0023 22.9349 51.1869 22.9349C50.3948 22.9349 49.707 22.8123 49.1237 22.567C48.5437 22.3218 48.0896 21.9638 47.7615 21.4932C47.4367 21.0225 47.261 20.4491 47.2345 19.773H49.0491C49.0757 20.1277 49.185 20.4226 49.3773 20.658C49.5695 20.8933 49.8197 21.0689 50.128 21.1849C50.4395 21.3009 50.7875 21.3589 51.172 21.3589C51.5731 21.3589 51.9244 21.2993 52.226 21.18C52.5309 21.0573 52.7695 20.8883 52.9419 20.6729C53.1142 20.4541 53.2021 20.1989 53.2054 19.9072C53.2021 19.6421 53.1242 19.4233 52.9717 19.251C52.8193 19.0753 52.6055 18.9295 52.3304 18.8135C52.0586 18.6942 51.7404 18.5881 51.3758 18.4953L50.2175 18.197C49.3789 17.9816 48.716 17.6551 48.2288 17.2176C47.7449 16.7768 47.503 16.1918 47.503 15.4626C47.503 14.8627 47.6654 14.3374 47.9902 13.8866C48.3183 13.4359 48.7641 13.0862 49.3275 12.8376C49.891 12.5857 50.529 12.4598 51.2416 12.4598C51.9641 12.4598 52.5972 12.5857 53.1408 12.8376C53.6876 13.0862 54.1168 13.4326 54.4284 13.8767C54.74 14.3175 54.9007 14.8246 54.9106 15.398H53.1358ZM56.6147 22.7808V15.1445H58.4144V22.7808H56.6147ZM57.5195 14.0607C57.2344 14.0607 56.9892 13.9662 56.7837 13.7773C56.5782 13.585 56.4755 13.3547 56.4755 13.0862C56.4755 12.8144 56.5782 12.5841 56.7837 12.3952C56.9892 12.2029 57.2344 12.1068 57.5195 12.1068C57.8078 12.1068 58.0531 12.2029 58.2553 12.3952C58.4608 12.5841 58.5635 12.8144 58.5635 13.0862C58.5635 13.3547 58.4608 13.585 58.2553 13.7773C58.0531 13.9662 57.8078 14.0607 57.5195 14.0607ZM60.3446 22.7808V12.599H64.2423C64.9781 12.599 65.5896 12.715 66.0768 12.947C66.5674 13.1757 66.9336 13.4889 67.1756 13.8866C67.4208 14.2844 67.5435 14.7351 67.5435 15.2389C67.5435 15.6532 67.4639 16.0079 67.3048 16.3028C67.1457 16.5945 66.932 16.8315 66.6635 17.0138C66.395 17.1961 66.0951 17.327 65.7636 17.4065V17.506C66.1249 17.5259 66.4713 17.6369 66.8027 17.8391C67.1374 18.0379 67.4109 18.3196 67.623 18.6842C67.8351 19.0488 67.9412 19.4896 67.9412 20.0067C67.9412 20.5337 67.8136 21.0076 67.5584 21.4285C67.3032 21.8462 66.9187 22.1759 66.405 22.4179C65.8912 22.6598 65.2449 22.7808 64.466 22.7808H60.3446ZM62.1891 21.2396H64.1727C64.8422 21.2396 65.3245 21.112 65.6195 20.8568C65.9177 20.5983 66.0669 20.2669 66.0669 19.8625C66.0669 19.5609 65.9923 19.2891 65.8432 19.0472C65.694 18.8019 65.4819 18.6097 65.2068 18.4705C64.9317 18.3279 64.6036 18.2567 64.2224 18.2567H62.1891V21.2396ZM62.1891 16.9293H64.0136C64.3318 16.9293 64.6185 16.8713 64.8737 16.7553C65.1289 16.6359 65.3294 16.4686 65.4753 16.2531C65.6244 16.0344 65.699 15.7759 65.699 15.4776C65.699 15.0831 65.5598 14.7583 65.2814 14.5031C65.0063 14.2479 64.597 14.1203 64.0534 14.1203H62.1891V16.9293ZM69.5458 22.7808V12.599H76.0685V14.1452H71.3902V16.9094H75.621V18.4555H71.3902V22.7808H69.5458ZM77.7489 22.7808V12.599H81.5671C82.3493 12.599 83.0055 12.7349 83.5358 13.0067C84.0694 13.2785 84.4721 13.6596 84.7439 14.1501C85.019 14.6374 85.1566 15.2058 85.1566 15.8554C85.1566 16.5083 85.0174 17.0751 84.7389 17.5557C84.4639 18.033 84.0578 18.4025 83.5209 18.6643C82.984 18.9229 82.3244 19.0521 81.5422 19.0521H78.8228V17.5209H81.2936C81.751 17.5209 82.1255 17.4579 82.4172 17.332C82.7089 17.2027 82.9243 17.0154 83.0635 16.7702C83.206 16.5216 83.2773 16.2167 83.2773 15.8554C83.2773 15.4941 83.206 15.1859 83.0635 14.9307C82.921 14.6722 82.7039 14.4766 82.4122 14.344C82.1206 14.2081 81.7444 14.1402 81.2837 14.1402H79.5934V22.7808H77.7489ZM83.0088 18.1672L85.5294 22.7808H83.4712L80.9953 18.1672H83.0088Z" fill="#3772FF"/>
</g>
<defs>
<filter id="filter0_d_1760_305" x="0.340332" y="0.513031" width="103" height="41.8314" filterUnits="userSpaceOnUse" color-interpolation-filters="sRGB">
<feFlood flood-opacity="0" result="BackgroundImageFix"/>
<feColorMatrix in="SourceAlpha" type="matrix" values="0 0 0 0 0 0 0 0 0 0 0 0 0 0 0 0 0 0 127 0" result="hardAlpha"/>
<feOffset dy="4"/>
<feGaussianBlur stdDeviation="2"/>
<feComposite in2="hardAlpha" operator="out"/>
<feColorMatrix type="matrix" values="0 0 0 0 0 0 0 0 0 0 0 0 0 0 0 0 0 0 0.25 0"/>
<feBlend mode="normal" in2="BackgroundImageFix" result="effect1_dropShadow_1760_305"/>
<feBlend mode="normal" in="SourceGraphic" in2="effect1_dropShadow_1760_305" result="shape"/>
</filter>
</defs>
</svg>
