<svg width="130" height="24" viewBox="0 0 130 24" fill="none" xmlns="http://www.w3.org/2000/svg">
<path d="M15.3794 17.7657L19.4894 17.7657L19.4894 12.1407L15.3794 12.1407L15.3794 17.7657Z" stroke="#808191" stroke-width="1.5" stroke-linecap="round" stroke-linejoin="round"/>
<path d="M8.18446 17.7639L12.1945 17.7639L12.1945 8.62567L8.18446 8.62567L8.18446 17.7639Z" stroke="#808191" stroke-width="1.5" stroke-linecap="round" stroke-linejoin="round"/>
<path d="M0.991684 17.762L5.10168 17.762L5.10168 5.1106L0.991684 5.1106L0.991684 17.762Z" stroke="#808191" stroke-width="1.5" stroke-linecap="round" stroke-linejoin="round"/>
<path d="M49.0372 9.69217C48.9908 9.25798 48.7952 8.91992 48.4505 8.67796C48.1091 8.43601 47.665 8.31504 47.1181 8.31504C46.7337 8.31504 46.4039 8.37304 46.1288 8.48904C45.8537 8.60505 45.6432 8.76248 45.4974 8.96134C45.3515 9.16021 45.277 9.38725 45.2737 9.64245C45.2737 9.85457 45.3217 10.0385 45.4178 10.1943C45.5173 10.3501 45.6515 10.4827 45.8205 10.592C45.9896 10.6981 46.1768 10.7876 46.3823 10.8605C46.5878 10.9334 46.795 10.9947 47.0038 11.0444L47.9583 11.2831C48.3428 11.3726 48.7123 11.4935 49.067 11.646C49.4249 11.7985 49.7448 11.9907 50.0265 12.2227C50.3115 12.4547 50.5369 12.7348 50.7026 13.0629C50.8684 13.391 50.9512 13.7755 50.9512 14.2163C50.9512 14.8129 50.7988 15.3382 50.4938 15.7923C50.1889 16.2431 49.7481 16.5961 49.1714 16.8513C48.598 17.1032 47.9036 17.2291 47.0883 17.2291C46.2962 17.2291 45.6084 17.1065 45.0251 16.8612C44.4451 16.6159 43.991 16.258 43.6629 15.7873C43.3381 15.3167 43.1624 14.7433 43.1359 14.0672H44.9505C44.977 14.4218 45.0864 14.7168 45.2786 14.9521C45.4709 15.1874 45.7211 15.3631 46.0293 15.4791C46.3409 15.5951 46.6889 15.6531 47.0734 15.6531C47.4744 15.6531 47.8257 15.5934 48.1274 15.4741C48.4323 15.3515 48.6709 15.1825 48.8433 14.967C49.0156 14.7483 49.1034 14.4931 49.1068 14.2014C49.1034 13.9363 49.0256 13.7175 48.8731 13.5452C48.7206 13.3695 48.5069 13.2237 48.2318 13.1077C47.96 12.9883 47.6418 12.8823 47.2772 12.7895L46.1188 12.4912C45.2803 12.2757 44.6174 11.9493 44.1302 11.5118C43.6463 11.071 43.4043 10.486 43.4043 9.7568C43.4043 9.15689 43.5667 8.63156 43.8916 8.18081C44.2197 7.73005 44.6655 7.38038 45.2289 7.1318C45.7924 6.87991 46.4304 6.75396 47.143 6.75396C47.8655 6.75396 48.4986 6.87991 49.0421 7.1318C49.589 7.38038 50.0182 7.72673 50.3298 8.17086C50.6413 8.61168 50.8021 9.11878 50.812 9.69217H49.0372ZM55.8967 17.2241C55.1311 17.2241 54.4699 17.065 53.913 16.7469C53.3595 16.4254 52.9336 15.9713 52.6353 15.3846C52.337 14.7947 52.1879 14.1003 52.1879 13.3015C52.1879 12.516 52.337 11.8266 52.6353 11.2334C52.937 10.6368 53.3579 10.1728 53.8981 9.84132C54.4384 9.50656 55.0731 9.33919 55.8022 9.33919C56.2729 9.33919 56.717 9.41542 57.1346 9.56788C57.5556 9.71703 57.9268 9.94903 58.2483 10.2639C58.5731 10.5788 58.8283 10.9798 59.0139 11.467C59.1995 11.9509 59.2923 12.5276 59.2923 13.1971V13.749H53.0331V12.5359H57.5672C57.5638 12.1912 57.4893 11.8846 57.3434 11.6162C57.1976 11.3444 56.9938 11.1306 56.7319 10.9748C56.4734 10.8191 56.1718 10.7412 55.8271 10.7412C55.4592 10.7412 55.1361 10.8307 54.8576 11.0096C54.5792 11.1853 54.3621 11.4173 54.2064 11.7057C54.0539 11.9907 53.976 12.3039 53.9727 12.6453V13.7042C53.9727 14.1484 54.0539 14.5295 54.2163 14.8477C54.3787 15.1626 54.6058 15.4045 54.8974 15.5736C55.1891 15.7393 55.5305 15.8221 55.9216 15.8221C56.1834 15.8221 56.4204 15.7857 56.6325 15.7128C56.8446 15.6365 57.0286 15.5255 57.1843 15.3797C57.3401 15.2338 57.4578 15.0532 57.5373 14.8378L59.2177 15.0267C59.1117 15.4708 58.9095 15.8586 58.6112 16.19C58.3162 16.5182 57.9384 16.7734 57.4777 16.9557C57.017 17.1346 56.49 17.2241 55.8967 17.2241ZM64.1458 17.2241C63.3835 17.2241 62.7289 17.0568 62.182 16.722C61.6385 16.3872 61.2192 15.9249 60.9242 15.3349C60.6326 14.7416 60.4867 14.0589 60.4867 13.2866C60.4867 12.5111 60.6359 11.8266 60.9342 11.2334C61.2325 10.6368 61.6534 10.1728 62.197 9.84132C62.7438 9.50656 63.3901 9.33919 64.1359 9.33919C64.7557 9.33919 65.3042 9.45353 65.7815 9.68223C66.2621 9.9076 66.6449 10.2274 66.9299 10.6417C67.2149 11.0527 67.3774 11.5333 67.4171 12.0835H65.697C65.6274 11.7156 65.4616 11.409 65.1998 11.1638C64.9413 10.9152 64.5949 10.7909 64.1607 10.7909C63.7928 10.7909 63.4697 10.8903 63.1913 11.0892C62.9129 11.2847 62.6958 11.5665 62.54 11.9344C62.3875 12.3023 62.3113 12.7431 62.3113 13.2568C62.3113 13.7772 62.3875 14.2246 62.54 14.5991C62.6925 14.9703 62.9062 15.257 63.1813 15.4592C63.4597 15.6581 63.7862 15.7575 64.1607 15.7575C64.4259 15.7575 64.6629 15.7078 64.8717 15.6084C65.0838 15.5056 65.2611 15.3581 65.4036 15.1659C65.5462 14.9737 65.6439 14.74 65.697 14.4649H67.4171C67.374 15.0051 67.2149 15.4841 66.9399 15.9017C66.6648 16.316 66.2902 16.6408 65.8163 16.8761C65.3423 17.1081 64.7855 17.2241 64.1458 17.2241ZM72.7081 9.43862V10.8307H68.3182V9.43862H72.7081ZM69.402 7.60907H71.2017V14.7781C71.2017 15.0201 71.2382 15.2057 71.3111 15.3349C71.3874 15.4609 71.4868 15.547 71.6094 15.5934C71.7321 15.6398 71.8679 15.663 72.0171 15.663C72.1298 15.663 72.2325 15.6548 72.3253 15.6382C72.4214 15.6216 72.4944 15.6067 72.5441 15.5934L72.8473 17.0004C72.7512 17.0336 72.6137 17.07 72.4347 17.1098C72.259 17.1496 72.0436 17.1728 71.7884 17.1794C71.3376 17.1926 70.9316 17.1247 70.5704 16.9755C70.2091 16.8231 69.9224 16.5878 69.7103 16.2696C69.5015 15.9514 69.3987 15.5537 69.402 15.0764V7.60907ZM74.2133 17.075V9.43862H76.013V17.075H74.2133ZM75.1181 8.35481C74.8331 8.35481 74.5878 8.26035 74.3823 8.07143C74.1768 7.8792 74.0741 7.64884 74.0741 7.38038C74.0741 7.1086 74.1768 6.87825 74.3823 6.68933C74.5878 6.49709 74.8331 6.40098 75.1181 6.40098C75.4065 6.40098 75.6517 6.49709 75.8539 6.68933C76.0594 6.87825 76.1622 7.1086 76.1622 7.38038C76.1622 7.64884 76.0594 7.8792 75.8539 8.07143C75.6517 8.26035 75.4065 8.35481 75.1181 8.35481ZM81.1946 17.2241C80.4489 17.2241 79.8026 17.0601 79.2557 16.7319C78.7089 16.4038 78.2846 15.9448 77.983 15.3548C77.6847 14.7648 77.5356 14.0755 77.5356 13.2866C77.5356 12.4978 77.6847 11.8068 77.983 11.2135C78.2846 10.6202 78.7089 10.1595 79.2557 9.83137C79.8026 9.50325 80.4489 9.33919 81.1946 9.33919C81.9404 9.33919 82.5867 9.50325 83.1336 9.83137C83.6804 10.1595 84.103 10.6202 84.4013 11.2135C84.7029 11.8068 84.8537 12.4978 84.8537 13.2866C84.8537 14.0755 84.7029 14.7648 84.4013 15.3548C84.103 15.9448 83.6804 16.4038 83.1336 16.7319C82.5867 17.0601 81.9404 17.2241 81.1946 17.2241ZM81.2046 15.7824C81.6089 15.7824 81.947 15.6713 82.2188 15.4493C82.4906 15.2239 82.6928 14.9223 82.8253 14.5444C82.9612 14.1666 83.0292 13.7457 83.0292 13.2817C83.0292 12.8143 82.9612 12.3917 82.8253 12.0139C82.6928 11.6327 82.4906 11.3295 82.2188 11.1041C81.947 10.8787 81.6089 10.766 81.2046 10.766C80.7903 10.766 80.4456 10.8787 80.1705 11.1041C79.8987 11.3295 79.6949 11.6327 79.559 12.0139C79.4264 12.3917 79.3601 12.8143 79.3601 13.2817C79.3601 13.7457 79.4264 14.1666 79.559 14.5444C79.6949 14.9223 79.8987 15.2239 80.1705 15.4493C80.4456 15.6713 80.7903 15.7824 81.2046 15.7824ZM88.181 12.6005V17.075H86.3813V9.43862H88.1014V10.7362H88.1909C88.3666 10.3086 88.6466 9.96892 89.0311 9.71703C89.4189 9.46513 89.8978 9.33919 90.4679 9.33919C90.9949 9.33919 91.4539 9.45188 91.845 9.67725C92.2395 9.90263 92.5444 10.2291 92.7598 10.6567C92.9786 11.0842 93.0863 11.6029 93.083 12.2128V17.075H91.2832V12.4912C91.2832 11.9808 91.1507 11.5814 90.8855 11.293C90.6237 11.0047 90.2608 10.8605 89.7967 10.8605C89.4819 10.8605 89.2018 10.9301 88.9565 11.0693C88.7146 11.2052 88.524 11.4024 88.3848 11.6609C88.2489 11.9194 88.181 12.2327 88.181 12.6005ZM98.7381 17.075L103.068 8.50396V8.43436H98.0421V6.89316H104.977V8.46916L100.652 17.075H98.7381Z" fill="#808191"/>
</svg>
