<svg width="105" height="24" viewBox="0 0 105 24" fill="none" xmlns="http://www.w3.org/2000/svg">
<path d="M32.8396 10.4498H30.662C30.6222 10.168 30.541 9.91781 30.4184 9.69906C30.2958 9.47699 30.1383 9.28807 29.9461 9.1323C29.7539 8.97652 29.5318 8.8572 29.2799 8.77434C29.0313 8.69148 28.7612 8.65005 28.4695 8.65005C27.9425 8.65005 27.4835 8.78097 27.0924 9.04281C26.7013 9.30133 26.398 9.67917 26.1826 10.1763C25.9672 10.6702 25.8594 11.2701 25.8594 11.976C25.8594 12.7019 25.9672 13.3117 26.1826 13.8056C26.4013 14.2994 26.7063 14.6723 27.0974 14.9242C27.4885 15.1761 27.9409 15.302 28.4546 15.302C28.743 15.302 29.0098 15.2639 29.255 15.1877C29.5036 15.1115 29.724 15.0004 29.9163 14.8546C30.1085 14.7054 30.2676 14.5248 30.3935 14.3127C30.5228 14.1006 30.6123 13.8586 30.662 13.5868L32.8396 13.5968C32.7832 14.0641 32.6423 14.5149 32.417 14.9491C32.1949 15.3799 31.895 15.7661 31.5171 16.1074C31.1426 16.4455 30.6951 16.714 30.1748 16.9128C29.6577 17.1084 29.0727 17.2062 28.4198 17.2062C27.5117 17.2062 26.6996 17.0007 25.9837 16.5897C25.2711 16.1787 24.7077 15.5838 24.2934 14.8049C23.8824 14.026 23.6769 13.0831 23.6769 11.976C23.6769 10.8657 23.8857 9.92112 24.3033 9.14224C24.7209 8.36336 25.2877 7.77008 26.0036 7.36241C26.7195 6.95143 27.5249 6.74593 28.4198 6.74593C29.0098 6.74593 29.5566 6.82879 30.0604 6.99451C30.5675 7.16023 31.0166 7.40218 31.4077 7.72036C31.7988 8.03523 32.117 8.42136 32.3623 8.87874C32.6109 9.33613 32.77 9.85981 32.8396 10.4498ZM39.2405 13.8155V9.43059H41.3584V17.067H39.325V15.6799H39.2455C39.0731 16.1273 38.7864 16.4869 38.3854 16.7587C37.9876 17.0305 37.5021 17.1664 36.9287 17.1664C36.4183 17.1664 35.9692 17.0504 35.5814 16.8184C35.1936 16.5864 34.8903 16.2566 34.6716 15.829C34.4562 15.4015 34.3468 14.8894 34.3435 14.2928V9.43059H36.4614V13.915C36.4647 14.3657 36.5856 14.722 36.8243 14.9839C37.0629 15.2457 37.3828 15.3766 37.7838 15.3766C38.039 15.3766 38.2776 15.3186 38.4997 15.2026C38.7218 15.0833 38.9008 14.9076 39.0366 14.6756C39.1758 14.4436 39.2438 14.1569 39.2405 13.8155ZM49.4061 11.6081L47.4672 11.7275C47.4341 11.5617 47.3628 11.4126 47.2534 11.28C47.1441 11.1441 46.9999 11.0364 46.8209 10.9569C46.6452 10.874 46.4348 10.8326 46.1895 10.8326C45.8614 10.8326 45.5846 10.9022 45.3593 11.0414C45.1339 11.1773 45.0212 11.3596 45.0212 11.5883C45.0212 11.7706 45.0941 11.9247 45.2399 12.0506C45.3858 12.1766 45.636 12.2777 45.9907 12.3539L47.3728 12.6323C48.1152 12.7848 48.6687 13.03 49.0333 13.3681C49.3979 13.7062 49.5801 14.1503 49.5801 14.7005C49.5801 15.201 49.4327 15.6401 49.1377 16.0179C48.846 16.3958 48.445 16.6908 47.9345 16.9029C47.4274 17.1117 46.8425 17.2161 46.1796 17.2161C45.1687 17.2161 44.3633 17.0056 43.7634 16.5847C43.1668 16.1605 42.8171 15.5838 42.7144 14.8546L44.7975 14.7452C44.8604 15.0535 45.0129 15.2888 45.2549 15.4512C45.4968 15.6103 45.8067 15.6898 46.1845 15.6898C46.5558 15.6898 46.8541 15.6186 47.0794 15.476C47.3081 15.3302 47.4241 15.1429 47.4274 14.9143C47.4241 14.722 47.3429 14.5646 47.1838 14.442C47.0247 14.316 46.7795 14.2199 46.448 14.1536L45.1256 13.8901C44.3799 13.741 43.8247 13.4824 43.4601 13.1145C43.0988 12.7466 42.9182 12.2777 42.9182 11.7076C42.9182 11.2171 43.0508 10.7945 43.3159 10.4398C43.5844 10.0852 43.9606 9.81175 44.4445 9.61951C44.9317 9.42728 45.5018 9.33116 46.1547 9.33116C47.1192 9.33116 47.8782 9.535 48.4317 9.94267C48.9885 10.3503 49.3133 10.9055 49.4061 11.6081ZM54.9756 9.43059V11.0215H50.3768V9.43059H54.9756ZM51.4209 7.60105H53.5388V14.7204C53.5388 14.9159 53.5686 15.0684 53.6283 15.1778C53.6879 15.2838 53.7708 15.3584 53.8768 15.4015C53.9862 15.4446 54.1122 15.4661 54.2547 15.4661C54.3541 15.4661 54.4535 15.4578 54.553 15.4412C54.6524 15.4214 54.7286 15.4064 54.7817 15.3965L55.1148 16.9725C55.0087 17.0056 54.8596 17.0438 54.6673 17.0868C54.4751 17.1332 54.2414 17.1614 53.9663 17.1714C53.4559 17.1912 53.0085 17.1233 52.624 16.9675C52.2428 16.8117 51.9462 16.5698 51.7341 16.2417C51.522 15.9135 51.4176 15.4992 51.4209 14.9988V7.60105ZM59.7234 17.2161C58.9512 17.2161 58.2833 17.052 57.7199 16.7239C57.1597 16.3925 56.7272 15.9318 56.4223 15.3418C56.1174 14.7485 55.9649 14.0608 55.9649 13.2786C55.9649 12.4898 56.1174 11.8004 56.4223 11.2104C56.7272 10.6171 57.1597 10.1564 57.7199 9.82832C58.2833 9.49688 58.9512 9.33116 59.7234 9.33116C60.4957 9.33116 61.1619 9.49688 61.722 9.82832C62.2855 10.1564 62.7196 10.6171 63.0246 11.2104C63.3295 11.8004 63.482 12.4898 63.482 13.2786C63.482 14.0608 63.3295 14.7485 63.0246 15.3418C62.7196 15.9318 62.2855 16.3925 61.722 16.7239C61.1619 17.052 60.4957 17.2161 59.7234 17.2161ZM59.7334 15.5755C60.0847 15.5755 60.378 15.476 60.6133 15.2772C60.8487 15.075 61.026 14.7999 61.1453 14.4519C61.2679 14.1039 61.3293 13.7078 61.3293 13.2637C61.3293 12.8196 61.2679 12.4235 61.1453 12.0755C61.026 11.7275 60.8487 11.4524 60.6133 11.2502C60.378 11.048 60.0847 10.9469 59.7334 10.9469C59.3787 10.9469 59.0804 11.048 58.8385 11.2502C58.5999 11.4524 58.4192 11.7275 58.2966 12.0755C58.1773 12.4235 58.1176 12.8196 58.1176 13.2637C58.1176 13.7078 58.1773 14.1039 58.2966 14.4519C58.4192 14.7999 58.5999 15.075 58.8385 15.2772C59.0804 15.476 59.3787 15.5755 59.7334 15.5755ZM64.8591 17.067V9.43059H66.8776V10.7779H66.967C67.1261 10.3304 67.3913 9.97747 67.7625 9.71894C68.1337 9.46042 68.5778 9.33116 69.0949 9.33116C69.6186 9.33116 70.0643 9.46208 70.4322 9.72392C70.8001 9.98244 71.0454 10.3338 71.168 10.7779H71.2476C71.4034 10.3404 71.6851 9.99072 72.0928 9.72889C72.5037 9.46374 72.9893 9.33116 73.5494 9.33116C74.262 9.33116 74.8404 9.5582 75.2845 10.0123C75.732 10.463 75.9557 11.1027 75.9557 11.9313V17.067H73.8428V12.3489C73.8428 11.9247 73.7301 11.6065 73.5047 11.3944C73.2793 11.1822 72.9976 11.0762 72.6595 11.0762C72.275 11.0762 71.9751 11.1988 71.7597 11.4441C71.5442 11.686 71.4365 12.0059 71.4365 12.4036V17.067H69.3832V12.3042C69.3832 11.9296 69.2755 11.6313 69.0601 11.4093C68.848 11.1872 68.5679 11.0762 68.2199 11.0762C67.9846 11.0762 67.7724 11.1358 67.5835 11.2552C67.3979 11.3712 67.2504 11.5352 67.141 11.7474C67.0317 11.9562 66.977 12.2014 66.977 12.4831V17.067H64.8591ZM82.9867 6.88514V17.067H80.8689V6.88514H82.9867ZM84.6833 17.067V9.43059H86.8012V17.067H84.6833ZM85.7472 8.44622C85.4324 8.44622 85.1622 8.34181 84.9369 8.13301C84.7148 7.92089 84.6038 7.66733 84.6038 7.37235C84.6038 7.08069 84.7148 6.83045 84.9369 6.62164C85.1622 6.40952 85.4324 6.30346 85.7472 6.30346C86.0621 6.30346 86.3306 6.40952 86.5526 6.62164C86.778 6.83045 86.8907 7.08069 86.8907 7.37235C86.8907 7.66733 86.778 7.92089 86.5526 8.13301C86.3306 8.34181 86.0621 8.44622 85.7472 8.44622ZM90.6157 12.6522V17.067H88.4978V9.43059H90.5162V10.7779H90.6057C90.7747 10.3338 91.0581 9.98244 91.4559 9.72392C91.8536 9.46208 92.3358 9.33116 92.9026 9.33116C93.4329 9.33116 93.8952 9.44716 94.2897 9.67917C94.6841 9.91118 94.9907 10.2426 95.2094 10.6735C95.4282 11.101 95.5375 11.6115 95.5375 12.2047V17.067H93.4196V12.5826C93.4229 12.1153 93.3036 11.7507 93.0617 11.4888C92.8197 11.2237 92.4866 11.0911 92.0624 11.0911C91.7774 11.0911 91.5255 11.1524 91.3067 11.2751C91.0913 11.3977 90.9222 11.5767 90.7996 11.812C90.6803 12.044 90.619 12.3241 90.6157 12.6522ZM99.1258 14.8695L99.1307 12.329H99.439L101.885 9.43059H104.316L101.03 13.2687H100.528L99.1258 14.8695ZM97.2067 17.067V6.88514H99.3246V17.067H97.2067ZM101.979 17.067L99.7323 13.741L101.144 12.2445L104.46 17.067H101.979Z" fill="white"/>
<path d="M15.2405 19.629H6.24048V17.6728H14.2405V5.93558H4.24048V11.8042H2.24048V4.95747C2.24048 4.41756 2.68848 3.97937 3.24048 3.97937H15.2405C15.7925 3.97937 16.2405 4.41756 16.2405 4.95747V18.6509C16.2405 19.1908 15.7925 19.629 15.2405 19.629Z" fill="white"/>
<path d="M12.2404 7.89178H6.24042L8.53342 10.1346L0.826416 17.6728L2.24042 19.0559L9.94742 11.5176L12.2404 13.7604V7.89178Z" fill="white"/>
</svg>
