<svg width="146" height="20" viewBox="0 0 146 20" fill="none" xmlns="http://www.w3.org/2000/svg">
<path d="M45.0141 14.7996H41.5638V4.6178H45.0837C46.0946 4.6178 46.963 4.82164 47.6888 5.22931C48.418 5.63366 48.9781 6.21534 49.3692 6.97434C49.7603 7.73333 49.9559 8.64148 49.9559 9.69877C49.9559 10.7594 49.7587 11.6708 49.3643 12.4331C48.9732 13.1955 48.4081 13.7804 47.6689 14.1881C46.9331 14.5958 46.0482 14.7996 45.0141 14.7996ZM43.4083 13.2037H44.9246C45.6339 13.2037 46.2255 13.0745 46.6995 12.816C47.1734 12.5541 47.5297 12.1647 47.7684 11.6476C48.007 11.1273 48.1263 10.4777 48.1263 9.69877C48.1263 8.91989 48.007 8.27358 47.7684 7.75985C47.5297 7.2428 47.1768 6.85668 46.7094 6.60147C46.2454 6.34295 45.6687 6.21368 44.9793 6.21368H43.4083V13.2037ZM54.9598 14.9488C54.214 14.9488 53.5677 14.7847 53.0209 14.4566C52.474 14.1285 52.0497 13.6694 51.7481 13.0795C51.4498 12.4895 51.3007 11.8001 51.3007 11.0113C51.3007 10.2224 51.4498 9.53139 51.7481 8.93812C52.0497 8.34484 52.474 7.88414 53.0209 7.55601C53.5677 7.22789 54.214 7.06383 54.9598 7.06383C55.7055 7.06383 56.3518 7.22789 56.8987 7.55601C57.4456 7.88414 57.8682 8.34484 58.1665 8.93812C58.4681 9.53139 58.6189 10.2224 58.6189 11.0113C58.6189 11.8001 58.4681 12.4895 58.1665 13.0795C57.8682 13.6694 57.4456 14.1285 56.8987 14.4566C56.3518 14.7847 55.7055 14.9488 54.9598 14.9488ZM54.9697 13.507C55.3741 13.507 55.7122 13.396 55.9839 13.1739C56.2557 12.9485 56.4579 12.6469 56.5905 12.2691C56.7264 11.8912 56.7943 11.4703 56.7943 11.0063C56.7943 10.539 56.7264 10.1164 56.5905 9.73854C56.4579 9.35739 56.2557 9.05412 55.9839 8.82874C55.7122 8.60336 55.3741 8.49067 54.9697 8.49067C54.5554 8.49067 54.2107 8.60336 53.9356 8.82874C53.6639 9.05412 53.46 9.35739 53.3241 9.73854C53.1916 10.1164 53.1253 10.539 53.1253 11.0063C53.1253 11.4703 53.1916 11.8912 53.3241 12.2691C53.46 12.6469 53.6639 12.9485 53.9356 13.1739C54.2107 13.396 54.5554 13.507 54.9697 13.507ZM63.4774 14.9488C62.7151 14.9488 62.0605 14.7814 61.5136 14.4466C60.97 14.1119 60.5508 13.6495 60.2558 13.0596C59.9641 12.4663 59.8183 11.7835 59.8183 11.0113C59.8183 10.2357 59.9674 9.55128 60.2657 8.958C60.564 8.36141 60.9849 7.8974 61.5285 7.56596C62.0754 7.2312 62.7217 7.06383 63.4674 7.06383C64.0872 7.06383 64.6357 7.17817 65.113 7.40687C65.5936 7.63224 65.9764 7.95208 66.2615 8.36638C66.5465 8.77737 66.7089 9.25795 66.7487 9.80814H65.0285C64.9589 9.44025 64.7932 9.13366 64.5313 8.8884C64.2728 8.63982 63.9265 8.51553 63.4923 8.51553C63.1244 8.51553 62.8012 8.61496 62.5228 8.81383C62.2444 9.00938 62.0273 9.2911 61.8715 9.659C61.7191 10.0269 61.6428 10.4677 61.6428 10.9814C61.6428 11.5018 61.7191 11.9492 61.8715 12.3238C62.024 12.695 62.2378 12.9817 62.5129 13.1839C62.7913 13.3827 63.1177 13.4821 63.4923 13.4821C63.7574 13.4821 63.9944 13.4324 64.2032 13.333C64.4153 13.2303 64.5927 13.0828 64.7352 12.8905C64.8777 12.6983 64.9755 12.4646 65.0285 12.1895H66.7487C66.7056 12.7298 66.5465 13.2087 66.2714 13.6263C65.9963 14.0406 65.6218 14.3654 65.1478 14.6008C64.6739 14.8328 64.117 14.9488 63.4774 14.9488ZM73.0937 11.588V7.16326H74.8934V14.7996H73.1483V13.4424H73.0688C72.8965 13.8699 72.6131 14.2196 72.2187 14.4914C71.8276 14.7632 71.3453 14.8991 70.7719 14.8991C70.2715 14.8991 69.829 14.788 69.4445 14.566C69.0634 14.3406 68.7651 14.0141 68.5496 13.5866C68.3342 13.1557 68.2265 12.6353 68.2265 12.0255V7.16326H70.0262V11.7471C70.0262 12.231 70.1588 12.6154 70.4239 12.9005C70.6891 13.1855 71.0371 13.328 71.468 13.328C71.7331 13.328 71.99 13.2634 72.2385 13.1341C72.4871 13.0049 72.691 12.8126 72.8501 12.5574C73.0125 12.2989 73.0937 11.9758 73.0937 11.588ZM76.7441 14.7996V7.16326H78.4642V8.46084H78.5537C78.7128 8.02334 78.9763 7.68196 79.3442 7.4367C79.7121 7.18812 80.1512 7.06383 80.6617 7.06383C81.1787 7.06383 81.6146 7.18977 81.9692 7.44167C82.3271 7.69025 82.579 8.02997 82.7249 8.46084H82.8044C82.9735 8.0366 83.2585 7.69853 83.6595 7.44664C84.0639 7.19143 84.5428 7.06383 85.0963 7.06383C85.799 7.06383 86.3724 7.28589 86.8165 7.73002C87.2606 8.17415 87.4827 8.82211 87.4827 9.67391V14.7996H85.678V9.95232C85.678 9.47836 85.5521 9.13201 85.3002 8.91326C85.0483 8.69119 84.74 8.58016 84.3754 8.58016C83.9413 8.58016 83.6015 8.71605 83.3563 8.98783C83.1143 9.2563 82.9933 9.60597 82.9933 10.0368V14.7996H81.2284V9.87775C81.2284 9.48333 81.1091 9.16847 80.8705 8.93314C80.6352 8.69782 80.3269 8.58016 79.9458 8.58016C79.6872 8.58016 79.4519 8.64645 79.2398 8.77902C79.0277 8.90829 78.8586 9.09224 78.7327 9.33087C78.6067 9.56619 78.5438 9.84129 78.5438 10.1562V14.7996H76.7441ZM92.6892 14.9488C91.9236 14.9488 91.2623 14.7897 90.7055 14.4715C90.152 14.15 89.7261 13.6959 89.4278 13.1093C89.1295 12.5193 88.9804 11.825 88.9804 11.0262C88.9804 10.2407 89.1295 9.55128 89.4278 8.958C89.7294 8.36141 90.1504 7.8974 90.6906 7.56596C91.2309 7.2312 91.8656 7.06383 92.5947 7.06383C93.0654 7.06383 93.5095 7.14006 93.9271 7.29252C94.348 7.44167 94.7193 7.67367 95.0407 7.98854C95.3656 8.30341 95.6208 8.70445 95.8064 9.19167C95.992 9.67557 96.0848 10.2523 96.0848 10.9218V11.4736H89.8256V10.2606H94.3596C94.3563 9.91586 94.2818 9.60928 94.1359 9.34081C93.9901 9.06903 93.7863 8.85526 93.5244 8.69948C93.2659 8.5437 92.9643 8.46581 92.6196 8.46581C92.2517 8.46581 91.9285 8.5553 91.6501 8.73428C91.3717 8.90994 91.1546 9.14195 90.9988 9.4303C90.8464 9.71534 90.7685 10.0286 90.7652 10.3699V11.4289C90.7652 11.873 90.8464 12.2542 91.0088 12.5723C91.1712 12.8872 91.3982 13.1292 91.6899 13.2982C91.9816 13.4639 92.3229 13.5468 92.714 13.5468C92.9759 13.5468 93.2129 13.5103 93.425 13.4374C93.6371 13.3612 93.8211 13.2501 93.9768 13.1043C94.1326 12.9585 94.2503 12.7778 94.3298 12.5624L96.0102 12.7513C95.9041 13.1955 95.702 13.5832 95.4037 13.9147C95.1087 14.2428 94.7309 14.498 94.2702 14.6803C93.8095 14.8593 93.2825 14.9488 92.6892 14.9488ZM99.407 10.3252V14.7996H97.6073V7.16326H99.3275V8.46084H99.417C99.5927 8.03329 99.8727 7.69356 100.257 7.44167C100.645 7.18977 101.124 7.06383 101.694 7.06383C102.221 7.06383 102.68 7.17652 103.071 7.40189C103.466 7.62727 103.77 7.95374 103.986 8.3813C104.205 8.80885 104.312 9.32756 104.309 9.93741V14.7996H102.509V10.2158C102.509 9.7054 102.377 9.30601 102.112 9.01766C101.85 8.72931 101.487 8.58513 101.023 8.58513C100.708 8.58513 100.428 8.65474 100.183 8.79394C99.9407 8.92983 99.7501 9.12704 99.6109 9.38556C99.475 9.64408 99.407 9.95729 99.407 10.3252ZM109.952 7.16326V8.5553H105.562V7.16326H109.952ZM106.646 5.33371H108.445V12.5027C108.445 12.7447 108.482 12.9303 108.555 13.0596C108.631 13.1855 108.73 13.2717 108.853 13.3181C108.976 13.3645 109.112 13.3877 109.261 13.3877C109.373 13.3877 109.476 13.3794 109.569 13.3628C109.665 13.3463 109.738 13.3313 109.788 13.3181L110.091 14.725C109.995 14.7582 109.857 14.7946 109.678 14.8344C109.503 14.8742 109.287 14.8974 109.032 14.904C108.581 14.9173 108.175 14.8493 107.814 14.7002C107.453 14.5477 107.166 14.3124 106.954 13.9942C106.745 13.676 106.642 13.2783 106.646 12.801V5.33371ZM113.654 14.9537C113.17 14.9537 112.735 14.8676 112.347 14.6952C111.962 14.5196 111.657 14.261 111.432 13.9196C111.21 13.5783 111.099 13.1573 111.099 12.6569C111.099 12.226 111.179 11.8697 111.338 11.588C111.497 11.3063 111.714 11.0809 111.989 10.9118C112.264 10.7428 112.574 10.6152 112.919 10.529C113.267 10.4395 113.626 10.3749 113.997 10.3351C114.445 10.2887 114.808 10.2473 115.086 10.2108C115.365 10.1711 115.567 10.1114 115.693 10.0319C115.822 9.94901 115.887 9.8214 115.887 9.64905V9.61922C115.887 9.2447 115.776 8.95469 115.554 8.7492C115.331 8.5437 115.012 8.44096 114.594 8.44096C114.153 8.44096 113.804 8.53707 113.545 8.72931C113.29 8.92154 113.117 9.14858 113.028 9.41042L111.348 9.17178C111.48 8.70777 111.699 8.31998 112.004 8.00843C112.309 7.69356 112.682 7.45824 113.122 7.30246C113.563 7.14337 114.05 7.06383 114.584 7.06383C114.952 7.06383 115.318 7.10691 115.683 7.19309C116.047 7.27926 116.38 7.42178 116.682 7.62064C116.984 7.81619 117.226 8.083 117.408 8.42107C117.594 8.75914 117.686 9.18172 117.686 9.68883V14.7996H115.956V13.7506H115.897C115.787 13.9627 115.633 14.1616 115.434 14.3472C115.239 14.5295 114.992 14.677 114.693 14.7897C114.398 14.8991 114.052 14.9537 113.654 14.9537ZM114.122 13.6313C114.483 13.6313 114.796 13.56 115.061 13.4175C115.326 13.2717 115.53 13.0795 115.673 12.8408C115.819 12.6022 115.892 12.342 115.892 12.0603V11.1604C115.835 11.2068 115.739 11.2499 115.603 11.2897C115.471 11.3295 115.322 11.3643 115.156 11.3941C114.99 11.4239 114.826 11.4504 114.664 11.4736C114.501 11.4968 114.36 11.5167 114.241 11.5333C113.973 11.5697 113.732 11.6294 113.52 11.7123C113.308 11.7951 113.141 11.9111 113.018 12.0603C112.895 12.2061 112.834 12.395 112.834 12.627C112.834 12.9585 112.955 13.2087 113.197 13.3777C113.439 13.5468 113.747 13.6313 114.122 13.6313ZM123.309 7.16326V8.5553H118.919V7.16326H123.309ZM120.003 5.33371H121.803V12.5027C121.803 12.7447 121.839 12.9303 121.912 13.0596C121.988 13.1855 122.088 13.2717 122.21 13.3181C122.333 13.3645 122.469 13.3877 122.618 13.3877C122.731 13.3877 122.834 13.3794 122.926 13.3628C123.023 13.3463 123.095 13.3313 123.145 13.3181L123.448 14.725C123.352 14.7582 123.215 14.7946 123.036 14.8344C122.86 14.8742 122.645 14.8974 122.389 14.904C121.939 14.9173 121.533 14.8493 121.171 14.7002C120.81 14.5477 120.523 14.3124 120.311 13.9942C120.103 13.676 120 13.2783 120.003 12.801V5.33371ZM124.814 14.7996V7.16326H126.614V14.7996H124.814ZM125.719 6.07945C125.434 6.07945 125.189 5.98499 124.983 5.79607C124.778 5.60384 124.675 5.37348 124.675 5.10502C124.675 4.83324 124.778 4.60289 124.983 4.41397C125.189 4.22173 125.434 4.12562 125.719 4.12562C126.008 4.12562 126.253 4.22173 126.455 4.41397C126.66 4.60289 126.763 4.83324 126.763 5.10502C126.763 5.37348 126.66 5.60384 126.455 5.79607C126.253 5.98499 126.008 6.07945 125.719 6.07945ZM131.796 14.9488C131.05 14.9488 130.404 14.7847 129.857 14.4566C129.31 14.1285 128.886 13.6694 128.584 13.0795C128.286 12.4895 128.137 11.8001 128.137 11.0113C128.137 10.2224 128.286 9.53139 128.584 8.93812C128.886 8.34484 129.31 7.88414 129.857 7.55601C130.404 7.22789 131.05 7.06383 131.796 7.06383C132.541 7.06383 133.188 7.22789 133.735 7.55601C134.282 7.88414 134.704 8.34484 135.002 8.93812C135.304 9.53139 135.455 10.2224 135.455 11.0113C135.455 11.8001 135.304 12.4895 135.002 13.0795C134.704 13.6694 134.282 14.1285 133.735 14.4566C133.188 14.7847 132.541 14.9488 131.796 14.9488ZM131.806 13.507C132.21 13.507 132.548 13.396 132.82 13.1739C133.092 12.9485 133.294 12.6469 133.426 12.2691C133.562 11.8912 133.63 11.4703 133.63 11.0063C133.63 10.539 133.562 10.1164 133.426 9.73854C133.294 9.35739 133.092 9.05412 132.82 8.82874C132.548 8.60336 132.21 8.49067 131.806 8.49067C131.391 8.49067 131.047 8.60336 130.772 8.82874C130.5 9.05412 130.296 9.35739 130.16 9.73854C130.027 10.1164 129.961 10.539 129.961 11.0063C129.961 11.4703 130.027 11.8912 130.16 12.2691C130.296 12.6469 130.5 12.9485 130.772 13.1739C131.047 13.396 131.391 13.507 131.806 13.507ZM138.782 10.3252V14.7996H136.982V7.16326H138.703V8.46084H138.792C138.968 8.03329 139.248 7.69356 139.632 7.44167C140.02 7.18977 140.499 7.06383 141.069 7.06383C141.596 7.06383 142.055 7.17652 142.446 7.40189C142.841 7.62727 143.145 7.95374 143.361 8.3813C143.58 8.80885 143.687 9.32756 143.684 9.93741V14.7996H141.884V10.2158C141.884 9.7054 141.752 9.30601 141.487 9.01766C141.225 8.72931 140.862 8.58513 140.398 8.58513C140.083 8.58513 139.803 8.65474 139.558 8.79394C139.316 8.92983 139.125 9.12704 138.986 9.38556C138.85 9.64408 138.782 9.95729 138.782 10.3252Z" fill="#808191"/>
<path d="M13.3317 18.524H3.0517C1.9117 18.524 0.991699 17.6529 0.991699 16.5733V2.94663C0.991699 1.86711 1.9117 0.995911 3.0517 0.995911H13.3317C14.4717 0.995911 15.3917 1.86711 15.3917 2.94663V16.5733C15.3817 17.6529 14.4617 18.524 13.3317 18.524Z" stroke="#808191" stroke-linecap="round" stroke-linejoin="round"/>
<path d="M4.08173 4.9447H12.3017" stroke="#808191" stroke-linecap="round" stroke-linejoin="round"/>
<path d="M4.08173 9.81207H12.3017" stroke="#808191" stroke-linecap="round" stroke-linejoin="round"/>
<path d="M4.08173 14.6794H12.3017" stroke="#808191" stroke-linecap="round" stroke-linejoin="round"/>
</svg>
