<svg width="95" height="25" viewBox="0 0 95 25" fill="none" xmlns="http://www.w3.org/2000/svg">
<path d="M13.1513 8.07825C14.267 8.07825 15.1713 7.30665 15.1713 6.35485C15.1713 5.40305 14.267 4.63147 13.1513 4.63147C12.0357 4.63147 11.1313 5.40305 11.1313 6.35485C11.1313 7.30665 12.0357 8.07825 13.1513 8.07825Z" stroke="#808191" stroke-width="1.5" stroke-linecap="round" stroke-linejoin="round"/>
<path d="M3.07169 14.067C4.22045 14.067 5.1517 13.2954 5.1517 12.3436C5.1517 11.3919 4.22045 10.6203 3.07169 10.6203C1.92294 10.6203 0.991699 11.3919 0.991699 12.3436C0.991699 13.2954 1.92294 14.067 3.07169 14.067Z" stroke="#808191" stroke-width="1.5" stroke-linecap="round" stroke-linejoin="round"/>
<path d="M13.1513 20.0558C14.267 20.0558 15.1713 19.2842 15.1713 18.3324C15.1713 17.3806 14.267 16.609 13.1513 16.609C12.0357 16.609 11.1313 17.3806 11.1313 18.3324C11.1313 19.2842 12.0357 20.0558 13.1513 20.0558Z" stroke="#808191" stroke-width="1.5" stroke-linecap="round" stroke-linejoin="round"/>
<path d="M5.31201 11.0124L10.912 7.68506" stroke="#808191" stroke-width="1.5" stroke-linecap="round" stroke-linejoin="round"/>
<path d="M10.912 17.0011L5.31201 13.6738" stroke="#808191" stroke-width="1.5" stroke-linecap="round" stroke-linejoin="round"/>
<path d="M41.3446 17.9805V7.79871H45.1628C45.945 7.79871 46.6012 7.9346 47.1315 8.20638C47.6651 8.47816 48.0678 8.85932 48.3396 9.34985C48.6147 9.83706 48.7523 10.4055 48.7523 11.0551C48.7523 11.708 48.6131 12.2748 48.3347 12.7554C48.0596 13.2327 47.6535 13.6022 47.1166 13.8641C46.5797 14.1226 45.9201 14.2518 45.1379 14.2518H42.4185V12.7206H44.8893C45.3467 12.7206 45.7213 12.6576 46.0129 12.5317C46.3046 12.4024 46.52 12.2151 46.6592 11.9699C46.8017 11.7213 46.873 11.4164 46.873 11.0551C46.873 10.6938 46.8017 10.3856 46.6592 10.1304C46.5167 9.87186 46.2996 9.67632 46.0079 9.54374C45.7163 9.40785 45.3401 9.3399 44.8794 9.3399H43.1891V17.9805H41.3446ZM46.6045 13.3669L49.1251 17.9805H47.0669L44.591 13.3669H46.6045ZM53.6418 18.1297C52.8762 18.1297 52.215 17.9706 51.6582 17.6524C51.1047 17.3309 50.6788 16.8768 50.3805 16.2902C50.0822 15.7002 49.933 15.0059 49.933 14.2071C49.933 13.4216 50.0822 12.7322 50.3805 12.1389C50.6821 11.5423 51.103 11.0783 51.6432 10.7469C52.1835 10.4121 52.8182 10.2447 53.5474 10.2447C54.018 10.2447 54.4621 10.321 54.8797 10.4734C55.3007 10.6226 55.6719 10.8546 55.9934 11.1695C56.3182 11.4843 56.5734 11.8854 56.759 12.3726C56.9446 12.8565 57.0374 13.4332 57.0374 14.1027V14.6545H50.7782V13.4415H55.3123C55.309 13.0968 55.2344 12.7902 55.0886 12.5217C54.9427 12.2499 54.7389 12.0362 54.4771 11.8804C54.2185 11.7246 53.9169 11.6467 53.5722 11.6467C53.2043 11.6467 52.8812 11.7362 52.6028 11.9152C52.3244 12.0909 52.1073 12.3229 51.9515 12.6112C51.799 12.8962 51.7211 13.2095 51.7178 13.5508V14.6098C51.7178 15.0539 51.799 15.4351 51.9614 15.7533C52.1238 16.0681 52.3509 16.3101 52.6425 16.4791C52.9342 16.6448 53.2756 16.7277 53.6667 16.7277C53.9285 16.7277 54.1655 16.6912 54.3776 16.6183C54.5897 16.5421 54.7737 16.4311 54.9295 16.2852C55.0852 16.1394 55.2029 15.9587 55.2824 15.7433L56.9628 15.9322C56.8568 16.3764 56.6546 16.7641 56.3563 17.0956C56.0613 17.4237 55.6835 17.6789 55.2228 17.8612C54.7621 18.0402 54.2351 18.1297 53.6418 18.1297ZM62.4279 10.3442V11.7362H57.9137V10.3442H62.4279ZM59.0422 17.9805V9.62328C59.0422 9.10955 59.1483 8.682 59.3604 8.34061C59.5758 7.99923 59.8642 7.74402 60.2255 7.57499C60.5867 7.40596 60.9878 7.32144 61.4286 7.32144C61.7401 7.32144 62.0169 7.3463 62.2588 7.39601C62.5008 7.44573 62.6798 7.49047 62.7958 7.53025L62.4378 8.92229C62.3616 8.89909 62.2655 8.87589 62.1495 8.85269C62.0335 8.82617 61.9042 8.81292 61.7617 8.81292C61.4269 8.81292 61.1899 8.89412 61.0507 9.05652C60.9148 9.21561 60.8469 9.44431 60.8469 9.7426V17.9805H59.0422ZM66.9309 18.1297C66.1653 18.1297 65.504 17.9706 64.9472 17.6524C64.3937 17.3309 63.9678 16.8768 63.6695 16.2902C63.3712 15.7002 63.2221 15.0059 63.2221 14.2071C63.2221 13.4216 63.3712 12.7322 63.6695 12.1389C63.9711 11.5423 64.3921 11.0783 64.9323 10.7469C65.4726 10.4121 66.1073 10.2447 66.8364 10.2447C67.3071 10.2447 67.7512 10.321 68.1688 10.4734C68.5897 10.6226 68.961 10.8546 69.2824 11.1695C69.6073 11.4843 69.8625 11.8854 70.0481 12.3726C70.2337 12.8565 70.3265 13.4332 70.3265 14.1027V14.6545H64.0672V13.4415H68.6013C68.598 13.0968 68.5235 12.7902 68.3776 12.5217C68.2318 12.2499 68.028 12.0362 67.7661 11.8804C67.5076 11.7246 67.206 11.6467 66.8613 11.6467C66.4934 11.6467 66.1702 11.7362 65.8918 11.9152C65.6134 12.0909 65.3963 12.3229 65.2405 12.6112C65.0881 12.8962 65.0102 13.2095 65.0069 13.5508V14.6098C65.0069 15.0539 65.0881 15.4351 65.2505 15.7533C65.4129 16.0681 65.6399 16.3101 65.9316 16.4791C66.2233 16.6448 66.5646 16.7277 66.9557 16.7277C67.2176 16.7277 67.4546 16.6912 67.6667 16.6183C67.8788 16.5421 68.0628 16.4311 68.2185 16.2852C68.3743 16.1394 68.492 15.9587 68.5715 15.7433L70.2519 15.9322C70.1458 16.3764 69.9437 16.7641 69.6454 17.0956C69.3504 17.4237 68.9726 17.6789 68.5119 17.8612C68.0512 18.0402 67.5242 18.1297 66.9309 18.1297ZM71.849 17.9805V10.3442H73.5941V11.6169H73.6736C73.8128 11.1761 74.0514 10.8364 74.3895 10.5977C74.7309 10.3558 75.1203 10.2348 75.5578 10.2348C75.6573 10.2348 75.7683 10.2398 75.8909 10.2497C76.0169 10.2563 76.1213 10.2679 76.2041 10.2845V11.94C76.1279 11.9135 76.0069 11.8903 75.8412 11.8704C75.6788 11.8472 75.5214 11.8356 75.3689 11.8356C75.0408 11.8356 74.7458 11.9069 74.484 12.0494C74.2255 12.1886 74.0216 12.3825 73.8725 12.6311C73.7233 12.8797 73.6487 13.1664 73.6487 13.4912V17.9805H71.849ZM77.3998 17.9805V10.3442H79.1448V11.6169H79.2244C79.3636 11.1761 79.6022 10.8364 79.9403 10.5977C80.2817 10.3558 80.6711 10.2348 81.1086 10.2348C81.2081 10.2348 81.3191 10.2398 81.4417 10.2497C81.5677 10.2563 81.6721 10.2679 81.7549 10.2845V11.94C81.6787 11.9135 81.5577 11.8903 81.392 11.8704C81.2296 11.8472 81.0722 11.8356 80.9197 11.8356C80.5916 11.8356 80.2966 11.9069 80.0348 12.0494C79.7762 12.1886 79.5724 12.3825 79.4233 12.6311C79.2741 12.8797 79.1995 13.1664 79.1995 13.4912V17.9805H77.3998ZM85.0113 18.1346C84.5274 18.1346 84.0916 18.0485 83.7038 17.8761C83.3193 17.7005 83.0144 17.4419 82.789 17.1006C82.567 16.7592 82.4559 16.3382 82.4559 15.8378C82.4559 15.4069 82.5355 15.0506 82.6946 14.7689C82.8536 14.4872 83.0707 14.2618 83.3458 14.0927C83.6209 13.9237 83.9308 13.7961 84.2755 13.7099C84.6235 13.6204 84.9831 13.5558 85.3544 13.516C85.8018 13.4696 86.1647 13.4282 86.4431 13.3918C86.7215 13.352 86.9237 13.2923 87.0497 13.2128C87.1789 13.1299 87.2436 13.0023 87.2436 12.83V12.8001C87.2436 12.4256 87.1325 12.1356 86.9105 11.9301C86.6884 11.7246 86.3686 11.6219 85.9509 11.6219C85.5101 11.6219 85.1605 11.718 84.9019 11.9102C84.6467 12.1025 84.4744 12.3295 84.3849 12.5913L82.7045 12.3527C82.8371 11.8887 83.0558 11.5009 83.3608 11.1893C83.6657 10.8745 84.0385 10.6391 84.4794 10.4834C84.9202 10.3243 85.4074 10.2447 85.941 10.2447C86.3089 10.2447 86.6751 10.2878 87.0397 10.374C87.4043 10.4602 87.7374 10.6027 88.039 10.8016C88.3406 10.9971 88.5826 11.2639 88.7649 11.602C88.9505 11.94 89.0433 12.3626 89.0433 12.8697V17.9805H87.3132V16.9315H87.2535C87.1441 17.1436 86.99 17.3425 86.7911 17.5281C86.5956 17.7104 86.3487 17.8579 86.0504 17.9706C85.7554 18.08 85.409 18.1346 85.0113 18.1346ZM85.4786 16.8122C85.8399 16.8122 86.1531 16.7409 86.4183 16.5984C86.6834 16.4526 86.8873 16.2604 87.0298 16.0217C87.1756 15.7831 87.2485 15.5229 87.2485 15.2412V14.3413C87.1922 14.3877 87.0961 14.4308 86.9602 14.4706C86.8276 14.5104 86.6785 14.5452 86.5127 14.575C86.347 14.6048 86.183 14.6313 86.0206 14.6545C85.8581 14.6777 85.7173 14.6976 85.598 14.7142C85.3295 14.7507 85.0892 14.8103 84.8771 14.8932C84.665 14.976 84.4976 15.092 84.375 15.2412C84.2523 15.387 84.191 15.5759 84.191 15.8079C84.191 16.1394 84.312 16.3896 84.5539 16.5587C84.7959 16.7277 85.1041 16.8122 85.4786 16.8122ZM92.6527 7.79871V17.9805H90.8529V7.79871H92.6527Z" fill="#808191"/>
</svg>
