<svg width="147" height="25" viewBox="0 0 147 25" fill="none" xmlns="http://www.w3.org/2000/svg">
<path d="M6.3634 10.8189V17.3152" stroke="#808191" stroke-width="1.5" stroke-linecap="round" stroke-linejoin="round"/>
<path d="M11.0294 7.70985V17.3146" stroke="#808191" stroke-width="1.5" stroke-linecap="round" stroke-linejoin="round"/>
<path d="M15.6202 14.2516V17.315" stroke="#808191" stroke-width="1.5" stroke-linecap="round" stroke-linejoin="round"/>
<path fill-rule="evenodd" clip-rule="evenodd" d="M15.6774 3.1138H6.30598C3.03932 3.1138 0.991699 5.30324 0.991699 8.4027V16.764C0.991699 19.8635 3.02979 22.0529 6.30598 22.0529H15.6774C18.9536 22.0529 20.9917 19.8635 20.9917 16.764V8.4027C20.9917 5.30324 18.9536 3.1138 15.6774 3.1138Z" stroke="#808191" stroke-width="1.5" stroke-linecap="round" stroke-linejoin="round"/>
<path d="M49.7881 10.26C49.7417 9.82585 49.5462 9.48779 49.2015 9.24584C48.8601 9.00388 48.416 8.88291 47.8691 8.88291C47.4846 8.88291 47.1548 8.94091 46.8797 9.05692C46.6047 9.17292 46.3942 9.33035 46.2484 9.52922C46.1025 9.72808 46.028 9.95512 46.0246 10.2103C46.0246 10.4224 46.0727 10.6064 46.1688 10.7622C46.2682 10.9179 46.4025 11.0505 46.5715 11.1599C46.7405 11.266 46.9278 11.3554 47.1333 11.4284C47.3388 11.5013 47.5459 11.5626 47.7547 11.6123L48.7093 11.8509C49.0938 11.9404 49.4633 12.0614 49.818 12.2139C50.1759 12.3663 50.4958 12.5586 50.7775 12.7906C51.0625 13.0226 51.2879 13.3027 51.4536 13.6308C51.6193 13.9589 51.7022 14.3434 51.7022 14.7842C51.7022 15.3808 51.5497 15.9061 51.2448 16.3602C50.9399 16.8109 50.4991 17.1639 49.9224 17.4191C49.349 17.671 48.6546 17.797 47.8393 17.797C47.0471 17.797 46.3594 17.6743 45.7761 17.4291C45.196 17.1838 44.742 16.8259 44.4138 16.3552C44.089 15.8846 43.9134 15.3112 43.8869 14.635H45.7015C45.728 14.9897 45.8374 15.2847 46.0296 15.52C46.2218 15.7553 46.4721 15.931 46.7803 16.047C47.0919 16.163 47.4399 16.221 47.8244 16.221C48.2254 16.221 48.5767 16.1613 48.8783 16.042C49.1833 15.9194 49.4219 15.7503 49.5942 15.5349C49.7666 15.3161 49.8544 15.0609 49.8577 14.7693C49.8544 14.5041 49.7765 14.2854 49.6241 14.113C49.4716 13.9374 49.2578 13.7915 48.9827 13.6755C48.711 13.5562 48.3928 13.4501 48.0282 13.3573L46.8698 13.059C46.0313 12.8436 45.3684 12.5171 44.8812 12.0796C44.3973 11.6388 44.1553 11.0538 44.1553 10.3247C44.1553 9.72477 44.3177 9.19943 44.6425 8.74868C44.9707 8.29792 45.4164 7.94825 45.9799 7.69967C46.5433 7.44778 47.1814 7.32183 47.894 7.32183C48.6165 7.32183 49.2495 7.44778 49.7931 7.69967C50.34 7.94825 50.7692 8.2946 51.0807 8.73873C51.3923 9.17955 51.553 9.68665 51.563 10.26H49.7881ZM56.6477 17.792C55.8821 17.792 55.2208 17.6329 54.664 17.3147C54.1105 16.9932 53.6846 16.5392 53.3863 15.9525C53.088 15.3625 52.9389 14.6682 52.9389 13.8694C52.9389 13.0839 53.088 12.3945 53.3863 11.8012C53.6879 11.2046 54.1089 10.7406 54.6491 10.4092C55.1893 10.0744 55.8241 9.90706 56.5532 9.90706C57.0239 9.90706 57.468 9.98329 57.8856 10.1358C58.3065 10.2849 58.6777 10.5169 58.9992 10.8318C59.3241 11.1466 59.5793 11.5477 59.7649 12.0349C59.9505 12.5188 60.0433 13.0955 60.0433 13.765V14.3169H53.784V13.1038H58.3181C58.3148 12.7591 58.2402 12.4525 58.0944 12.184C57.9486 11.9123 57.7447 11.6985 57.4829 11.5427C57.2244 11.3869 56.9228 11.309 56.5781 11.309C56.2102 11.309 55.887 11.3985 55.6086 11.5775C55.3302 11.7532 55.1131 11.9852 54.9573 12.2735C54.8049 12.5586 54.727 12.8718 54.7237 13.2132V14.2721C54.7237 14.7162 54.8049 15.0974 54.9673 15.4156C55.1297 15.7304 55.3567 15.9724 55.6484 16.1414C55.9401 16.3072 56.2814 16.39 56.6725 16.39C56.9344 16.39 57.1714 16.3536 57.3835 16.2806C57.5956 16.2044 57.7795 16.0934 57.9353 15.9475C58.0911 15.8017 58.2088 15.6211 58.2883 15.4056L59.9687 15.5946C59.8626 16.0387 59.6605 16.4265 59.3622 16.7579C59.0672 17.086 58.6893 17.3412 58.2286 17.5235C57.7679 17.7025 57.241 17.792 56.6477 17.792ZM64.8968 17.792C64.1345 17.792 63.4799 17.6246 62.933 17.2899C62.3895 16.9551 61.9702 16.4928 61.6752 15.9028C61.3835 15.3095 61.2377 14.6268 61.2377 13.8545C61.2377 13.0789 61.3869 12.3945 61.6851 11.8012C61.9834 11.2046 62.4044 10.7406 62.9479 10.4092C63.4948 10.0744 64.1411 9.90706 64.8869 9.90706C65.5066 9.90706 66.0552 10.0214 66.5324 10.2501C67.013 10.4755 67.3958 10.7953 67.6809 11.2096C67.9659 11.6206 68.1283 12.1012 68.1681 12.6514H66.4479C66.3783 12.2835 66.2126 11.9769 65.9508 11.7316C65.6922 11.4831 65.3459 11.3588 64.9117 11.3588C64.5438 11.3588 64.2207 11.4582 63.9422 11.6571C63.6638 11.8526 63.4467 12.1343 63.291 12.5022C63.1385 12.8701 63.0623 13.3109 63.0623 13.8247C63.0623 14.345 63.1385 14.7925 63.291 15.167C63.4434 15.5382 63.6572 15.8249 63.9323 16.0271C64.2107 16.2259 64.5372 16.3254 64.9117 16.3254C65.1769 16.3254 65.4138 16.2757 65.6226 16.1762C65.8348 16.0735 66.0121 15.926 66.1546 15.7338C66.2971 15.5415 66.3949 15.3079 66.4479 15.0328H68.1681C68.125 15.573 67.9659 16.0519 67.6908 16.4696C67.4157 16.8839 67.0412 17.2087 66.5672 17.444C66.0933 17.676 65.5365 17.792 64.8968 17.792ZM73.4591 10.0065V11.3985H69.0692V10.0065H73.4591ZM70.153 8.17694H71.9527V15.346C71.9527 15.5879 71.9892 15.7735 72.0621 15.9028C72.1383 16.0287 72.2378 16.1149 72.3604 16.1613C72.483 16.2077 72.6189 16.2309 72.7681 16.2309C72.8808 16.2309 72.9835 16.2226 73.0763 16.2061C73.1724 16.1895 73.2453 16.1746 73.2951 16.1613L73.5983 17.5683C73.5022 17.6014 73.3647 17.6379 73.1857 17.6777C73.01 17.7174 72.7946 17.7406 72.5394 17.7473C72.0886 17.7605 71.6826 17.6926 71.3213 17.5434C70.9601 17.391 70.6734 17.1556 70.4612 16.8375C70.2524 16.5193 70.1497 16.1215 70.153 15.6443V8.17694ZM74.9643 17.6429V10.0065H76.764V17.6429H74.9643ZM75.8691 8.92268C75.5841 8.92268 75.3388 8.82822 75.1333 8.6393C74.9278 8.44707 74.8251 8.21672 74.8251 7.94825C74.8251 7.67647 74.9278 7.44612 75.1333 7.2572C75.3388 7.06496 75.5841 6.96885 75.8691 6.96885C76.1574 6.96885 76.4027 7.06496 76.6049 7.2572C76.8104 7.44612 76.9131 7.67647 76.9131 7.94825C76.9131 8.21672 76.8104 8.44707 76.6049 8.6393C76.4027 8.82822 76.1574 8.92268 75.8691 8.92268ZM81.9456 17.792C81.1999 17.792 80.5536 17.6279 80.0067 17.2998C79.4598 16.9717 79.0356 16.5126 78.734 15.9227C78.4357 15.3327 78.2865 14.6433 78.2865 13.8545C78.2865 13.0657 78.4357 12.3746 78.734 11.7813C79.0356 11.1881 79.4598 10.7274 80.0067 10.3992C80.5536 10.0711 81.1999 9.90706 81.9456 9.90706C82.6914 9.90706 83.3377 10.0711 83.8845 10.3992C84.4314 10.7274 84.854 11.1881 85.1523 11.7813C85.4539 12.3746 85.6047 13.0657 85.6047 13.8545C85.6047 14.6433 85.4539 15.3327 85.1523 15.9227C84.854 16.5126 84.4314 16.9717 83.8845 17.2998C83.3377 17.6279 82.6914 17.792 81.9456 17.792ZM81.9556 16.3502C82.3599 16.3502 82.698 16.2392 82.9698 16.0171C83.2416 15.7918 83.4437 15.4902 83.5763 15.1123C83.7122 14.7345 83.7801 14.3135 83.7801 13.8495C83.7801 13.3822 83.7122 12.9596 83.5763 12.5818C83.4437 12.2006 83.2416 11.8974 82.9698 11.672C82.698 11.4466 82.3599 11.3339 81.9556 11.3339C81.5413 11.3339 81.1966 11.4466 80.9215 11.672C80.6497 11.8974 80.4459 12.2006 80.31 12.5818C80.1774 12.9596 80.1111 13.3822 80.1111 13.8495C80.1111 14.3135 80.1774 14.7345 80.31 15.1123C80.4459 15.4902 80.6497 15.7918 80.9215 16.0171C81.1966 16.2392 81.5413 16.3502 81.9556 16.3502ZM88.932 13.1684V17.6429H87.1322V10.0065H88.8524V11.3041H88.9419C89.1176 10.8765 89.3976 10.5368 89.7821 10.2849C90.1699 10.033 90.6488 9.90706 91.2189 9.90706C91.7459 9.90706 92.2049 10.0197 92.596 10.2451C92.9904 10.4705 93.2954 10.797 93.5108 11.2245C93.7295 11.6521 93.8373 12.1708 93.8339 12.7806V17.6429H92.0342V13.059C92.0342 12.5486 91.9016 12.1492 91.6365 11.8609C91.3747 11.5725 91.0117 11.4284 90.5477 11.4284C90.2329 11.4284 89.9528 11.498 89.7075 11.6372C89.4656 11.7731 89.275 11.9703 89.1358 12.2288C88.9999 12.4873 88.932 12.8005 88.932 13.1684ZM103.258 7.46103V17.6429H101.413V9.25578H101.353L98.9721 10.7771V9.08674L101.503 7.46103H103.258Z" fill="#808191"/>
</svg>
