<svg width="155" height="25" viewBox="0 0 155 25" fill="none" xmlns="http://www.w3.org/2000/svg">
<path d="M4.04169 11.3486V11.8486H4.54169H5.84171C6.00159 11.8486 6.09171 11.972 6.09171 12.0588V17.6648C6.09171 17.7516 6.00159 17.875 5.84171 17.875H4.54169H4.04169V18.375V19.6723C4.04169 19.7591 3.95157 19.8826 3.79169 19.8826C3.6318 19.8826 3.54169 19.7591 3.54169 19.6723V18.375V17.875H3.04169H1.7417C1.58182 17.875 1.4917 17.7516 1.4917 17.6648V12.0588C1.4917 11.972 1.58182 11.8486 1.7417 11.8486H3.04169H3.54169V11.3486V8.85809C3.54169 8.77131 3.6318 8.64787 3.79169 8.64787C3.95157 8.64787 4.04169 8.77131 4.04169 8.85809V11.3486Z" stroke="#808191"/>
<path d="M11.262 5.90246V6.40246H11.762H13.012C13.1718 6.40246 13.262 6.5259 13.262 6.61268V15.7224C13.262 15.8092 13.1718 15.9326 13.012 15.9326H11.772H11.272V16.4326V17.73C11.272 17.8167 11.1819 17.9402 11.022 17.9402C10.8621 17.9402 10.772 17.8167 10.772 17.73V16.4326V15.9326H10.272H9.02197C8.86209 15.9326 8.77197 15.8092 8.77197 15.7224V6.61268C8.77197 6.5259 8.86209 6.40246 9.02197 6.40246H10.262H10.762V5.90246V2.98584C10.762 2.89905 10.8521 2.77562 11.012 2.77562C11.1718 2.77562 11.262 2.89905 11.262 2.98584V5.90246Z" stroke="#808191"/>
<path d="M18.4421 3.34674V3.84674H18.9421H20.2421C20.402 3.84674 20.4921 3.97017 20.4921 4.05695V12.9962C20.4921 13.083 20.402 13.2064 20.2421 13.2064H18.9421H18.4421V13.7064V15.7234C18.4421 15.8102 18.352 15.9337 18.1921 15.9337C18.0322 15.9337 17.9421 15.8102 17.9421 15.7234V13.7064V13.2064H17.4421H16.1421C15.9822 13.2064 15.8921 13.083 15.8921 12.9962V4.05695C15.8921 3.97017 15.9822 3.84674 16.1421 3.84674H17.4421H17.9421V3.34674V2.15358C17.9421 2.06679 18.0322 1.94336 18.1921 1.94336C18.352 1.94336 18.4421 2.06679 18.4421 2.15358V3.34674Z" stroke="#808191"/>
<path d="M49.7891 10.1654C49.7427 9.73117 49.5472 9.39311 49.2025 9.15115C48.8611 8.9092 48.4169 8.78823 47.8701 8.78823C47.4856 8.78823 47.1558 8.84623 46.8807 8.96223C46.6056 9.07824 46.3952 9.23567 46.2493 9.43454C46.1035 9.6334 46.0289 9.86044 46.0256 10.1156C46.0256 10.3278 46.0737 10.5117 46.1698 10.6675C46.2692 10.8233 46.4035 10.9558 46.5725 11.0652C46.7415 11.1713 46.9288 11.2608 47.1343 11.3337C47.3398 11.4066 47.5469 11.4679 47.7557 11.5176L48.7103 11.7563C49.0947 11.8458 49.4643 11.9667 49.8189 12.1192C50.1769 12.2717 50.4967 12.4639 50.7785 12.6959C51.0635 12.9279 51.2889 13.208 51.4546 13.5361C51.6203 13.8642 51.7032 14.2487 51.7032 14.6895C51.7032 15.2861 51.5507 15.8114 51.2458 16.2655C50.9409 16.7163 50.5 17.0692 49.9233 17.3245C49.3499 17.5763 48.6556 17.7023 47.8402 17.7023C47.0481 17.7023 46.3604 17.5797 45.777 17.3344C45.197 17.0891 44.7429 16.7312 44.4148 16.2605C44.09 15.7899 43.9143 15.2165 43.8878 14.5404H45.7025C45.729 14.895 45.8383 15.19 46.0306 15.4253C46.2228 15.6606 46.4731 15.8363 46.7813 15.9523C47.0928 16.0683 47.4409 16.1263 47.8253 16.1263C48.2264 16.1263 48.5777 16.0666 48.8793 15.9473C49.1842 15.8247 49.4229 15.6557 49.5952 15.4402C49.7676 15.2215 49.8554 14.9663 49.8587 14.6746C49.8554 14.4094 49.7775 14.1907 49.625 14.0183C49.4726 13.8427 49.2588 13.6968 48.9837 13.5808C48.7119 13.4615 48.3937 13.3555 48.0292 13.2627L46.8708 12.9644C46.0322 12.7489 45.3694 12.4225 44.8821 11.985C44.3982 11.5441 44.1563 10.9592 44.1563 10.23C44.1563 9.63008 44.3187 9.10475 44.6435 8.654C44.9716 8.20324 45.4174 7.85357 45.9809 7.60499C46.5443 7.3531 47.1823 7.22715 47.8949 7.22715C48.6175 7.22715 49.2505 7.3531 49.7941 7.60499C50.341 7.85357 50.7702 8.19992 51.0817 8.64405C51.3933 9.08487 51.554 9.59197 51.564 10.1654H49.7891ZM56.6487 17.6973C55.883 17.6973 55.2218 17.5382 54.665 17.22C54.1115 16.8986 53.6856 16.4445 53.3873 15.8578C53.089 15.2679 52.9399 14.5735 52.9399 13.7747C52.9399 12.9892 53.089 12.2998 53.3873 11.7066C53.6889 11.11 54.1098 10.6459 54.6501 10.3145C55.1903 9.97975 55.825 9.81238 56.5542 9.81238C57.0248 9.81238 57.469 9.88861 57.8866 10.0411C58.3075 10.1902 58.6787 10.4222 59.0002 10.7371C59.325 11.052 59.5802 11.453 59.7658 11.9402C59.9515 12.4241 60.0443 13.0008 60.0443 13.6703V14.2222H53.785V13.0091H58.3191C58.3158 12.6644 58.2412 12.3578 58.0954 12.0894C57.9496 11.8176 57.7457 11.6038 57.4839 11.448C57.2254 11.2923 56.9238 11.2144 56.5791 11.2144C56.2112 11.2144 55.888 11.3039 55.6096 11.4828C55.3312 11.6585 55.1141 11.8905 54.9583 12.1789C54.8059 12.4639 54.728 12.7771 54.7247 13.1185V14.1774C54.7247 14.6216 54.8059 15.0027 54.9683 15.3209C55.1307 15.6358 55.3577 15.8777 55.6494 16.0468C55.941 16.2125 56.2824 16.2953 56.6735 16.2953C56.9354 16.2953 57.1723 16.2589 57.3845 16.186C57.5966 16.1097 57.7805 15.9987 57.9363 15.8529C58.0921 15.707 58.2097 15.5264 58.2893 15.311L59.9697 15.4999C59.8636 15.944 59.6614 16.3318 59.3631 16.6632C59.0682 16.9914 58.6903 17.2466 58.2296 17.4289C57.7689 17.6078 57.2419 17.6973 56.6487 17.6973ZM64.8978 17.6973C64.1355 17.6973 63.4809 17.5299 62.934 17.1952C62.3904 16.8604 61.9712 16.3981 61.6762 15.8081C61.3845 15.2148 61.2387 14.5321 61.2387 13.7598C61.2387 12.9843 61.3878 12.2998 61.6861 11.7066C61.9844 11.11 62.4053 10.6459 62.9489 10.3145C63.4958 9.97975 64.1421 9.81238 64.8878 9.81238C65.5076 9.81238 66.0562 9.92672 66.5334 10.1554C67.014 10.3808 67.3968 10.7006 67.6819 11.1149C67.9669 11.5259 68.1293 12.0065 68.1691 12.5567H66.4489C66.3793 12.1888 66.2136 11.8822 65.9517 11.637C65.6932 11.3884 65.3469 11.2641 64.9127 11.2641C64.5448 11.2641 64.2216 11.3635 63.9432 11.5624C63.6648 11.7579 63.4477 12.0396 63.2919 12.4075C63.1395 12.7754 63.0633 13.2163 63.0633 13.73C63.0633 14.2503 63.1395 14.6978 63.2919 15.0723C63.4444 15.4435 63.6582 15.7302 63.9333 15.9324C64.2117 16.1313 64.5382 16.2307 64.9127 16.2307C65.1778 16.2307 65.4148 16.181 65.6236 16.0816C65.8357 15.9788 66.0131 15.8313 66.1556 15.6391C66.2981 15.4468 66.3959 15.2132 66.4489 14.9381H68.1691C68.126 15.4783 67.9669 15.9573 67.6918 16.3749C67.4167 16.7892 67.0422 17.114 66.5682 17.3493C66.0943 17.5813 65.5374 17.6973 64.8978 17.6973ZM73.4601 9.91181V11.3039H69.0702V9.91181H73.4601ZM70.154 8.08226H71.9537V15.2513C71.9537 15.4932 71.9902 15.6789 72.0631 15.8081C72.1393 15.9341 72.2387 16.0202 72.3614 16.0666C72.484 16.113 72.6199 16.1362 72.769 16.1362C72.8817 16.1362 72.9845 16.128 73.0773 16.1114C73.1734 16.0948 73.2463 16.0799 73.296 16.0666L73.5993 17.4736C73.5032 17.5067 73.3656 17.5432 73.1867 17.583C73.011 17.6227 72.7956 17.6459 72.5403 17.6526C72.0896 17.6658 71.6836 17.5979 71.3223 17.4487C70.961 17.2963 70.6743 17.061 70.4622 16.7428C70.2534 16.4246 70.1507 16.0269 70.154 15.5496V8.08226ZM74.9652 17.5482V9.91181H76.765V17.5482H74.9652ZM75.8701 8.828C75.585 8.828 75.3398 8.73354 75.1343 8.54462C74.9288 8.35239 74.826 8.12204 74.826 7.85357C74.826 7.58179 74.9288 7.35144 75.1343 7.16252C75.3398 6.97028 75.585 6.87417 75.8701 6.87417C76.1584 6.87417 76.4037 6.97028 76.6059 7.16252C76.8114 7.35144 76.9141 7.58179 76.9141 7.85357C76.9141 8.12204 76.8114 8.35239 76.6059 8.54462C76.4037 8.73354 76.1584 8.828 75.8701 8.828ZM81.9466 17.6973C81.2009 17.6973 80.5546 17.5333 80.0077 17.2051C79.4608 16.877 79.0366 16.418 78.735 15.828C78.4367 15.238 78.2875 14.5486 78.2875 13.7598C78.2875 12.971 78.4367 12.2799 78.735 11.6867C79.0366 11.0934 79.4608 10.6327 80.0077 10.3046C80.5546 9.97644 81.2009 9.81238 81.9466 9.81238C82.6923 9.81238 83.3386 9.97644 83.8855 10.3046C84.4324 10.6327 84.855 11.0934 85.1533 11.6867C85.4549 12.2799 85.6057 12.971 85.6057 13.7598C85.6057 14.5486 85.4549 15.238 85.1533 15.828C84.855 16.418 84.4324 16.877 83.8855 17.2051C83.3386 17.5333 82.6923 17.6973 81.9466 17.6973ZM81.9565 16.2556C82.3609 16.2556 82.699 16.1445 82.9707 15.9225C83.2425 15.6971 83.4447 15.3955 83.5773 15.0176C83.7132 14.6398 83.7811 14.2189 83.7811 13.7548C83.7811 13.2875 83.7132 12.8649 83.5773 12.4871C83.4447 12.1059 83.2425 11.8027 82.9707 11.5773C82.699 11.3519 82.3609 11.2392 81.9565 11.2392C81.5422 11.2392 81.1975 11.3519 80.9225 11.5773C80.6507 11.8027 80.4468 12.1059 80.3109 12.4871C80.1784 12.8649 80.1121 13.2875 80.1121 13.7548C80.1121 14.2189 80.1784 14.6398 80.3109 15.0176C80.4468 15.3955 80.6507 15.6971 80.9225 15.9225C81.1975 16.1445 81.5422 16.2556 81.9565 16.2556ZM88.9329 13.0737V17.5482H87.1332V9.91181H88.8534V11.2094H88.9429C89.1185 10.7818 89.3986 10.4421 89.7831 10.1902C90.1709 9.93832 90.6498 9.81238 91.2199 9.81238C91.7468 9.81238 92.2059 9.92507 92.597 10.1504C92.9914 10.3758 93.2963 10.7023 93.5118 11.1298C93.7305 11.5574 93.8382 12.0761 93.8349 12.686V17.5482H92.0352V12.9644C92.0352 12.4539 91.9026 12.0546 91.6375 11.7662C91.3756 11.4779 91.0127 11.3337 90.5487 11.3337C90.2338 11.3337 89.9538 11.4033 89.7085 11.5425C89.4665 11.6784 89.276 11.8756 89.1368 12.1341C89.0009 12.3926 88.9329 12.7058 88.9329 13.0737ZM99.1172 17.5482V16.2158L102.652 12.7506C102.99 12.4092 103.272 12.1059 103.497 11.8408C103.723 11.5756 103.892 11.3188 104.004 11.0702C104.117 10.8216 104.173 10.5565 104.173 10.2747C104.173 9.95324 104.1 9.67814 103.955 9.44945C103.809 9.21744 103.608 9.03847 103.353 8.91252C103.098 8.78657 102.808 8.7236 102.483 8.7236C102.148 8.7236 101.855 8.7932 101.603 8.9324C101.351 9.06829 101.156 9.26219 101.016 9.51408C100.88 9.76598 100.813 10.0659 100.813 10.4139H99.0576C99.0576 9.76763 99.2051 9.20584 99.5 8.72857C99.795 8.2513 100.201 7.88174 100.718 7.6199C101.238 7.35807 101.835 7.22715 102.508 7.22715C103.191 7.22715 103.791 7.35475 104.308 7.60996C104.825 7.86517 105.226 8.21484 105.511 8.65897C105.799 9.1031 105.943 9.6102 105.943 10.1803C105.943 10.5614 105.87 10.936 105.724 11.3039C105.579 11.6718 105.322 12.0794 104.954 12.5269C104.589 12.9743 104.077 13.5162 103.418 14.1526L101.663 15.9374V16.007H106.097V17.5482H99.1172Z" fill="#808191"/>
</svg>
