<svg width="124" height="25" viewBox="0 0 124 25" fill="none" xmlns="http://www.w3.org/2000/svg">
<path d="M5.4585 14.5656L8.45163 10.8818L11.8658 13.4215L14.7949 9.84166" stroke="#808191" stroke-width="1.5" stroke-linecap="round" stroke-linejoin="round"/>
<ellipse cx="18.2088" cy="4.54493" rx="1.9222" ry="1.82024" stroke="#808191" stroke-width="1.5" stroke-linecap="round" stroke-linejoin="round"/>
<path d="M13.1382 3.52185H5.87042C2.85898 3.52185 0.991699 5.54144 0.991699 8.39314V16.0468C0.991699 18.8985 2.82236 20.9094 5.87042 20.9094H14.4745C17.486 20.9094 19.3533 18.8985 19.3533 16.0468V9.38127" stroke="#808191" stroke-width="1.5" stroke-linecap="round" stroke-linejoin="round"/>
<path d="M49.3584 10.0707C49.312 9.63648 49.1165 9.29841 48.7718 9.05646C48.4304 8.81451 47.9863 8.69353 47.4394 8.69353C47.0549 8.69353 46.7252 8.75153 46.4501 8.86754C46.175 8.98354 45.9645 9.14098 45.8187 9.33984C45.6728 9.5387 45.5983 9.76574 45.5949 10.0209C45.5949 10.2331 45.643 10.417 45.7391 10.5728C45.8386 10.7286 45.9728 10.8611 46.1418 10.9705C46.3109 11.0766 46.4981 11.1661 46.7036 11.239C46.9091 11.3119 47.1163 11.3732 47.3251 11.4229L48.2796 11.6616C48.6641 11.7511 49.0336 11.872 49.3883 12.0245C49.7462 12.177 50.0661 12.3692 50.3478 12.6012C50.6328 12.8332 50.8582 13.1133 51.0239 13.4414C51.1896 13.7695 51.2725 14.154 51.2725 14.5948C51.2725 15.1914 51.12 15.7167 50.8151 16.1708C50.5102 16.6216 50.0694 16.9745 49.4927 17.2298C48.9193 17.4816 48.2249 17.6076 47.4096 17.6076C46.6174 17.6076 45.9297 17.485 45.3464 17.2397C44.7664 16.9944 44.3123 16.6365 43.9842 16.1658C43.6593 15.6952 43.4837 15.1218 43.4572 14.4457H45.2718C45.2983 14.8003 45.4077 15.0953 45.5999 15.3306C45.7922 15.5659 46.0424 15.7416 46.3506 15.8576C46.6622 15.9736 47.0102 16.0316 47.3947 16.0316C47.7957 16.0316 48.147 15.9719 48.4486 15.8526C48.7536 15.73 48.9922 15.561 49.1646 15.3455C49.3369 15.1268 49.4247 14.8716 49.428 14.5799C49.4247 14.3147 49.3468 14.096 49.1944 13.9236C49.0419 13.748 48.8281 13.6022 48.553 13.4861C48.2813 13.3668 47.9631 13.2608 47.5985 13.168L46.4401 12.8697C45.6016 12.6542 44.9387 12.3278 44.4515 11.8903C43.9676 11.4495 43.7256 10.8645 43.7256 10.1353C43.7256 9.53539 43.888 9.01006 44.2128 8.5593C44.541 8.10854 44.9868 7.75887 45.5502 7.51029C46.1137 7.2584 46.7517 7.13245 47.4643 7.13245C48.1868 7.13245 48.8199 7.2584 49.3634 7.51029C49.9103 7.75887 50.3395 8.10523 50.6511 8.54936C50.9626 8.99017 51.1234 9.49727 51.1333 10.0707H49.3584ZM56.218 17.6026C55.4524 17.6026 54.7911 17.4435 54.2343 17.1254C53.6808 16.8039 53.2549 16.3498 52.9566 15.7631C52.6583 15.1732 52.5092 14.4788 52.5092 13.68C52.5092 12.8945 52.6583 12.2051 52.9566 11.6119C53.2582 11.0153 53.6792 10.5513 54.2194 10.2198C54.7597 9.88506 55.3944 9.71768 56.1235 9.71768C56.5942 9.71768 57.0383 9.79391 57.4559 9.94637C57.8768 10.0955 58.2481 10.3275 58.5696 10.6424C58.8944 10.9573 59.1496 11.3583 59.3352 11.8455C59.5208 12.3294 59.6136 12.9061 59.6136 13.5756V14.1275H53.3544V12.9144H57.8884C57.8851 12.5697 57.8106 12.2631 57.6647 11.9947C57.5189 11.7229 57.3151 11.5091 57.0532 11.3533C56.7947 11.1976 56.4931 11.1197 56.1484 11.1197C55.7805 11.1197 55.4573 11.2092 55.1789 11.3881C54.9005 11.5638 54.6834 11.7958 54.5277 12.0842C54.3752 12.3692 54.2973 12.6824 54.294 13.0238V14.0827C54.294 14.5269 54.3752 14.908 54.5376 15.2262C54.7 15.5411 54.927 15.783 55.2187 15.9521C55.5104 16.1178 55.8518 16.2006 56.2429 16.2006C56.5047 16.2006 56.7417 16.1642 56.9538 16.0913C57.1659 16.015 57.3499 15.904 57.5056 15.7582C57.6614 15.6123 57.7791 15.4317 57.8586 15.2163L59.539 15.4052C59.433 15.8493 59.2308 16.2371 58.9325 16.5685C58.6375 16.8967 58.2597 17.1519 57.799 17.3342C57.3383 17.5131 56.8113 17.6026 56.218 17.6026ZM64.4671 17.6026C63.7048 17.6026 63.0502 17.4352 62.5033 17.1005C61.9598 16.7657 61.5405 16.3034 61.2455 15.7134C60.9539 15.1201 60.808 14.4374 60.808 13.6651C60.808 12.8896 60.9572 12.2051 61.2555 11.6119C61.5538 11.0153 61.9747 10.5513 62.5182 10.2198C63.0651 9.88506 63.7114 9.71768 64.4572 9.71768C65.077 9.71768 65.6255 9.83203 66.1028 10.0607C66.5833 10.2861 66.9662 10.6059 67.2512 11.0202C67.5362 11.4312 67.6986 11.9118 67.7384 12.462H66.0182C65.9486 12.0941 65.7829 11.7875 65.5211 11.5423C65.2626 11.2937 64.9162 11.1694 64.482 11.1694C64.1141 11.1694 63.791 11.2688 63.5126 11.4677C63.2342 11.6632 63.0171 11.945 62.8613 12.3129C62.7088 12.6807 62.6326 13.1216 62.6326 13.6353C62.6326 14.1557 62.7088 14.6031 62.8613 14.9776C63.0137 15.3488 63.2275 15.6355 63.5026 15.8377C63.781 16.0366 64.1075 16.136 64.482 16.136C64.7472 16.136 64.9842 16.0863 65.193 15.9869C65.4051 15.8841 65.5824 15.7366 65.7249 15.5444C65.8674 15.3522 65.9652 15.1185 66.0182 14.8434H67.7384C67.6953 15.3836 67.5362 15.8626 67.2611 16.2802C66.986 16.6945 66.6115 17.0193 66.1376 17.2546C65.6636 17.4866 65.1068 17.6026 64.4671 17.6026ZM73.0294 9.81711V11.2092H68.6395V9.81711H73.0294ZM69.7233 7.98757H71.523V15.1566C71.523 15.3986 71.5595 15.5842 71.6324 15.7134C71.7086 15.8394 71.8081 15.9255 71.9307 15.9719C72.0533 16.0183 72.1892 16.0415 72.3384 16.0415C72.4511 16.0415 72.5538 16.0333 72.6466 16.0167C72.7427 16.0001 72.8157 15.9852 72.8654 15.9719L73.1686 17.3789C73.0725 17.412 72.935 17.4485 72.756 17.4883C72.5803 17.528 72.3649 17.5513 72.1097 17.5579C71.6589 17.5711 71.2529 17.5032 70.8916 17.354C70.5304 17.2016 70.2437 16.9663 70.0316 16.6481C69.8228 16.3299 69.72 15.9322 69.7233 15.4549V7.98757ZM74.5346 17.4535V9.81711H76.3343V17.4535H74.5346ZM75.4394 8.73331C75.1544 8.73331 74.9091 8.63885 74.7036 8.44992C74.4981 8.25769 74.3954 8.02734 74.3954 7.75887C74.3954 7.48709 74.4981 7.25674 74.7036 7.06782C74.9091 6.87559 75.1544 6.77947 75.4394 6.77947C75.7278 6.77947 75.973 6.87559 76.1752 7.06782C76.3807 7.25674 76.4834 7.48709 76.4834 7.75887C76.4834 8.02734 76.3807 8.25769 76.1752 8.44992C75.973 8.63885 75.7278 8.73331 75.4394 8.73331ZM81.5159 17.6026C80.7702 17.6026 80.1239 17.4386 79.577 17.1104C79.0301 16.7823 78.6059 16.3233 78.3043 15.7333C78.006 15.1433 77.8568 14.4539 77.8568 13.6651C77.8568 12.8763 78.006 12.1852 78.3043 11.592C78.6059 10.9987 79.0301 10.538 79.577 10.2099C80.1239 9.88174 80.7702 9.71768 81.5159 9.71768C82.2617 9.71768 82.908 9.88174 83.4549 10.2099C84.0017 10.538 84.4243 10.9987 84.7226 11.592C85.0242 12.1852 85.175 12.8763 85.175 13.6651C85.175 14.4539 85.0242 15.1433 84.7226 15.7333C84.4243 16.3233 84.0017 16.7823 83.4549 17.1104C82.908 17.4386 82.2617 17.6026 81.5159 17.6026ZM81.5259 16.1609C81.9302 16.1609 82.2683 16.0498 82.5401 15.8278C82.8119 15.6024 83.014 15.3008 83.1466 14.9229C83.2825 14.5451 83.3505 14.1242 83.3505 13.6602C83.3505 13.1928 83.2825 12.7702 83.1466 12.3924C83.014 12.0112 82.8119 11.708 82.5401 11.4826C82.2683 11.2572 81.9302 11.1445 81.5259 11.1445C81.1116 11.1445 80.7669 11.2572 80.4918 11.4826C80.22 11.708 80.0162 12.0112 79.8803 12.3924C79.7477 12.7702 79.6814 13.1928 79.6814 13.6602C79.6814 14.1242 79.7477 14.5451 79.8803 14.9229C80.0162 15.3008 80.22 15.6024 80.4918 15.8278C80.7669 16.0498 81.1116 16.1609 81.5259 16.1609ZM88.5023 12.979V17.4535H86.7025V9.81711H88.4227V11.1147H88.5122C88.6879 10.6871 88.9679 10.3474 89.3524 10.0955C89.7402 9.84363 90.2191 9.71768 90.7892 9.71768C91.3162 9.71768 91.7752 9.83037 92.1663 10.0557C92.5607 10.2811 92.8657 10.6076 93.0811 11.0352C93.2998 11.4627 93.4076 11.9814 93.4043 12.5913V17.4535H91.6045V12.8697C91.6045 12.3593 91.472 11.9599 91.2068 11.6715C90.945 11.3832 90.582 11.239 90.118 11.239C89.8032 11.239 89.5231 11.3086 89.2778 11.4478C89.0359 11.5837 88.8453 11.7809 88.7061 12.0394C88.5702 12.2979 88.5023 12.6111 88.5023 12.979ZM102.341 17.5927C101.625 17.5927 100.988 17.47 100.432 17.2248C99.8781 16.9795 99.4406 16.6381 99.1191 16.2006C98.7976 15.7631 98.6269 15.2577 98.607 14.6843H100.476C100.493 14.9594 100.584 15.1997 100.75 15.4052C100.915 15.6074 101.136 15.7648 101.411 15.8775C101.686 15.9902 101.994 16.0465 102.336 16.0465C102.7 16.0465 103.023 15.9835 103.305 15.8576C103.587 15.7283 103.807 15.5494 103.966 15.3207C104.125 15.092 104.203 14.8285 104.2 14.5302C104.203 14.2219 104.124 13.9502 103.961 13.7148C103.799 13.4795 103.564 13.2956 103.255 13.163C102.951 13.0304 102.583 12.9641 102.152 12.9641H101.252V11.5423H102.152C102.506 11.5423 102.816 11.4809 103.081 11.3583C103.35 11.2357 103.56 11.0633 103.713 10.8413C103.865 10.6159 103.94 10.3557 103.937 10.0607C103.94 9.77237 103.875 9.52213 103.743 9.31001C103.613 9.09457 103.429 8.9272 103.191 8.80788C102.956 8.68856 102.679 8.6289 102.361 8.6289C102.049 8.6289 101.761 8.68525 101.496 8.79794C101.23 8.91063 101.017 9.07137 100.854 9.28018C100.692 9.48567 100.606 9.73094 100.596 10.016H98.8208C98.8341 9.4459 98.9981 8.94543 99.313 8.51456C99.6312 8.08037 100.055 7.7423 100.586 7.50035C101.116 7.25509 101.711 7.13245 102.371 7.13245C103.05 7.13245 103.64 7.26006 104.14 7.51527C104.644 7.76716 105.034 8.10688 105.309 8.53444C105.584 8.962 105.721 9.4343 105.721 9.95134C105.725 10.5247 105.556 11.0053 105.214 11.3931C104.876 11.7809 104.432 12.0344 103.882 12.1538V12.2333C104.598 12.3327 105.146 12.5979 105.527 13.0288C105.912 13.4563 106.103 13.9883 106.099 14.6246C106.099 15.1947 105.937 15.7051 105.612 16.1559C105.29 16.6033 104.846 16.9547 104.28 17.2099C103.716 17.4651 103.07 17.5927 102.341 17.5927Z" fill="#808191"/>
</svg>
