<svg width="95" height="25" viewBox="0 0 95 25" fill="none" xmlns="http://www.w3.org/2000/svg">
<path d="M13.3946 9.73942C13.3946 10.606 12.3324 11.3797 10.7147 11.8594C9.74566 12.118 8.74689 12.2635 7.74059 12.2927C7.55575 12.3081 7.36983 12.3081 7.18499 12.2927C3.76969 12.2927 0.991699 11.1321 0.991699 9.70847C0.991699 8.28484 3.76969 7.12426 7.18499 7.12426H7.74059C8.01839 7.12426 8.27985 7.12426 8.5413 7.12426C10.0011 7.24113 11.4008 7.72749 12.5939 8.53242C12.8123 8.66606 12.9972 8.84337 13.1355 9.05189C13.2739 9.26041 13.3623 9.49508 13.3946 9.73942V9.73942Z" stroke="#808191" stroke-width="1.5" stroke-linecap="round" stroke-linejoin="round"/>
<path d="M13.3948 9.73764V13.436C13.3948 14.38 12.2019 15.1846 10.4044 15.6334C9.33706 15.8948 8.2386 16.0248 7.13616 16.0202C4.30914 16.0202 1.92334 15.231 1.18799 14.1633" stroke="#808191" stroke-width="1.5" stroke-linecap="round" stroke-linejoin="round"/>
<path d="M13.3946 13.4367V17.2898C13.3946 18.7289 10.6166 19.874 7.18499 19.874C3.75335 19.874 0.991699 18.7289 0.991699 17.2898" stroke="#808191" stroke-width="1.5" stroke-linecap="round" stroke-linejoin="round"/>
<path d="M8.10023 6.82975C7.88122 6.58721 7.75461 6.28203 7.74072 5.96318C7.74072 4.53954 10.5187 3.37896 13.9504 3.37896C17.382 3.37896 20.1436 4.53954 20.1436 5.96318C20.1436 7.38682 17.3656 8.53192 13.9504 8.53192C13.4986 8.55547 13.0458 8.55547 12.594 8.53192" stroke="#808191" stroke-width="1.5" stroke-linecap="round" stroke-linejoin="round"/>
<path d="M13.395 16.0831H13.9506C17.3659 16.0831 20.1439 14.938 20.1439 13.5143" stroke="#808191" stroke-width="1.5" stroke-linecap="round" stroke-linejoin="round"/>
<path d="M13.395 12.2305H13.9506C17.3659 12.2305 20.1439 11.07 20.1439 9.6618" stroke="#808191" stroke-width="1.5" stroke-linecap="round" stroke-linejoin="round"/>
<path d="M20.1431 13.5142V9.6611V5.96273" stroke="#808191" stroke-width="1.5" stroke-linecap="round" stroke-linejoin="round"/>
<path d="M0.991699 17.2891V9.73764" stroke="#808191" stroke-width="1.5" stroke-linecap="round" stroke-linejoin="round"/>
<path d="M49.3643 9.88156C49.3179 9.44738 49.1224 9.10931 48.7777 8.86736C48.4363 8.62541 47.9921 8.50443 47.4453 8.50443C47.0608 8.50443 46.731 8.56243 46.4559 8.67844C46.1808 8.79444 45.9704 8.95187 45.8245 9.15074C45.6787 9.3496 45.6041 9.57664 45.6008 9.83185C45.6008 10.044 45.6489 10.2279 45.745 10.3837C45.8444 10.5395 45.9786 10.672 46.1477 10.7814C46.3167 10.8875 46.504 10.977 46.7095 11.0499C46.915 11.1228 47.1221 11.1841 47.3309 11.2338L48.2855 11.4725C48.6699 11.562 49.0395 11.6829 49.3941 11.8354C49.7521 11.9879 50.0719 12.1801 50.3536 12.4121C50.6387 12.6441 50.8641 12.9242 51.0298 13.2523C51.1955 13.5804 51.2784 13.9649 51.2784 14.4057C51.2784 15.0023 51.1259 15.5276 50.821 15.9817C50.5161 16.4325 50.0752 16.7854 49.4985 17.0407C48.9251 17.2925 48.2308 17.4185 47.4154 17.4185C46.6233 17.4185 45.9356 17.2959 45.3522 17.0506C44.7722 16.8053 44.3181 16.4474 43.99 15.9767C43.6652 15.5061 43.4895 14.9327 43.463 14.2566H45.2777C45.3042 14.6112 45.4135 14.9062 45.6058 15.1415C45.798 15.3768 46.0483 15.5525 46.3565 15.6685C46.668 15.7845 47.0161 15.8425 47.4005 15.8425C47.8016 15.8425 48.1529 15.7828 48.4545 15.6635C48.7594 15.5409 48.9981 15.3719 49.1704 15.1564C49.3428 14.9377 49.4306 14.6825 49.4339 14.3908C49.4306 14.1256 49.3527 13.9069 49.2002 13.7345C49.0478 13.5589 48.834 13.413 48.5589 13.297C48.2871 13.1777 47.9689 13.0717 47.6044 12.9789L46.446 12.6806C45.6074 12.4651 44.9446 12.1387 44.4573 11.7012C43.9734 11.2603 43.7315 10.6754 43.7315 9.94619C43.7315 9.34629 43.8939 8.82095 44.2187 8.3702C44.5468 7.91944 44.9926 7.56977 45.5561 7.32119C46.1195 7.0693 46.7575 6.94335 47.4701 6.94335C48.1927 6.94335 48.8257 7.0693 49.3693 7.32119C49.9161 7.56977 50.3454 7.91613 50.6569 8.36025C50.9685 8.80107 51.1292 9.30817 51.1392 9.88156H49.3643ZM56.2239 17.4135C55.4582 17.4135 54.797 17.2544 54.2402 16.9362C53.6867 16.6148 53.2608 16.1607 52.9625 15.574C52.6642 14.9841 52.515 14.2897 52.515 13.4909C52.515 12.7054 52.6642 12.016 52.9625 11.4228C53.2641 10.8262 53.685 10.3621 54.2253 10.0307C54.7655 9.69596 55.4002 9.52858 56.1294 9.52858C56.6 9.52858 57.0442 9.60481 57.4618 9.75727C57.8827 9.90642 58.2539 10.1384 58.5754 10.4533C58.9002 10.7682 59.1554 11.1692 59.341 11.6564C59.5266 12.1403 59.6195 12.717 59.6195 13.3865V13.9384H53.3602V12.7253H57.8943C57.891 12.3806 57.8164 12.074 57.6706 11.8056C57.5248 11.5338 57.3209 11.32 57.0591 11.1642C56.8006 11.0085 56.4989 10.9306 56.1543 10.9306C55.7864 10.9306 55.4632 11.0201 55.1848 11.199C54.9064 11.3747 54.6893 11.6067 54.5335 11.8951C54.3811 12.1801 54.3032 12.4933 54.2998 12.8347V13.8936C54.2998 14.3378 54.3811 14.7189 54.5435 15.0371C54.7059 15.352 54.9329 15.5939 55.2246 15.763C55.5162 15.9287 55.8576 16.0115 56.2487 16.0115C56.5106 16.0115 56.7475 15.9751 56.9597 15.9022C57.1718 15.8259 57.3557 15.7149 57.5115 15.5691C57.6673 15.4232 57.7849 15.2426 57.8645 15.0272L59.5449 15.2161C59.4388 15.6602 59.2366 16.048 58.9383 16.3794C58.6434 16.7076 58.2655 16.9628 57.8048 17.1451C57.3441 17.324 56.8171 17.4135 56.2239 17.4135ZM64.473 17.4135C63.7107 17.4135 63.0561 17.2461 62.5092 16.9114C61.9656 16.5766 61.5464 16.1143 61.2514 15.5243C60.9597 14.931 60.8139 14.2483 60.8139 13.476C60.8139 12.7005 60.963 12.016 61.2613 11.4228C61.5596 10.8262 61.9805 10.3621 62.5241 10.0307C63.071 9.69596 63.7173 9.52858 64.463 9.52858C65.0828 9.52858 65.6313 9.64292 66.1086 9.87162C66.5892 10.097 66.972 10.4168 67.2571 10.8311C67.5421 11.2421 67.7045 11.7227 67.7443 12.2729H66.0241C65.9545 11.905 65.7888 11.5984 65.5269 11.3532C65.2684 11.1046 64.9221 10.9803 64.4879 10.9803C64.12 10.9803 63.7968 11.0797 63.5184 11.2786C63.24 11.4741 63.0229 11.7559 62.8671 12.1237C62.7147 12.4916 62.6384 12.9325 62.6384 13.4462C62.6384 13.9666 62.7147 14.414 62.8671 14.7885C63.0196 15.1597 63.2334 15.4464 63.5085 15.6486C63.7869 15.8475 64.1134 15.9469 64.4879 15.9469C64.753 15.9469 64.99 15.8972 65.1988 15.7978C65.4109 15.695 65.5883 15.5475 65.7308 15.3553C65.8733 15.163 65.9711 14.9294 66.0241 14.6543H67.7443C67.7012 15.1945 67.5421 15.6735 67.267 16.0911C66.9919 16.5054 66.6174 16.8302 66.1434 17.0655C65.6695 17.2975 65.1126 17.4135 64.473 17.4135ZM73.0353 9.62801V11.0201H68.6454V9.62801H73.0353ZM69.7292 7.79846H71.5289V14.9675C71.5289 15.2094 71.5654 15.3951 71.6383 15.5243C71.7145 15.6503 71.8139 15.7364 71.9366 15.7828C72.0592 15.8292 72.1951 15.8524 72.3442 15.8524C72.4569 15.8524 72.5597 15.8442 72.6525 15.8276C72.7486 15.811 72.8215 15.7961 72.8712 15.7828L73.1745 17.1898C73.0784 17.2229 72.9408 17.2594 72.7619 17.2992C72.5862 17.3389 72.3708 17.3621 72.1155 17.3688C71.6648 17.382 71.2588 17.3141 70.8975 17.1649C70.5362 17.0125 70.2495 16.7772 70.0374 16.459C69.8286 16.1408 69.7259 15.7431 69.7292 15.2658V7.79846ZM74.5404 17.2644V9.62801H76.3402V17.2644H74.5404ZM75.4453 8.5442C75.1602 8.5442 74.915 8.44974 74.7095 8.26082C74.504 8.06859 74.4012 7.83824 74.4012 7.56977C74.4012 7.29799 74.504 7.06764 74.7095 6.87872C74.915 6.68649 75.1602 6.59037 75.4453 6.59037C75.7336 6.59037 75.9789 6.68649 76.1811 6.87872C76.3866 7.06764 76.4893 7.29799 76.4893 7.56977C76.4893 7.83824 76.3866 8.06859 76.1811 8.26082C75.9789 8.44974 75.7336 8.5442 75.4453 8.5442ZM81.5218 17.4135C80.7761 17.4135 80.1297 17.2495 79.5829 16.9213C79.036 16.5932 78.6118 16.1342 78.3101 15.5442C78.0119 14.9542 77.8627 14.2648 77.8627 13.476C77.8627 12.6872 78.0119 11.9961 78.3101 11.4029C78.6118 10.8096 79.036 10.3489 79.5829 10.0208C80.1297 9.69264 80.7761 9.52858 81.5218 9.52858C82.2675 9.52858 82.9138 9.69264 83.4607 10.0208C84.0076 10.3489 84.4302 10.8096 84.7285 11.4029C85.0301 11.9961 85.1809 12.6872 85.1809 13.476C85.1809 14.2648 85.0301 14.9542 84.7285 15.5442C84.4302 16.1342 84.0076 16.5932 83.4607 16.9213C82.9138 17.2495 82.2675 17.4135 81.5218 17.4135ZM81.5317 15.9718C81.9361 15.9718 82.2742 15.8607 82.5459 15.6387C82.8177 15.4133 83.0199 15.1117 83.1525 14.7338C83.2884 14.356 83.3563 13.9351 83.3563 13.471C83.3563 13.0037 83.2884 12.5811 83.1525 12.2033C83.0199 11.8221 82.8177 11.5189 82.5459 11.2935C82.2742 11.0681 81.9361 10.9554 81.5317 10.9554C81.1174 10.9554 80.7727 11.0681 80.4976 11.2935C80.2259 11.5189 80.022 11.8221 79.8861 12.2033C79.7536 12.5811 79.6873 13.0037 79.6873 13.471C79.6873 13.9351 79.7536 14.356 79.8861 14.7338C80.022 15.1117 80.2259 15.4133 80.4976 15.6387C80.7727 15.8607 81.1174 15.9718 81.5317 15.9718ZM88.5081 12.7899V17.2644H86.7084V9.62801H88.4286V10.9256H88.5181C88.6937 10.498 88.9738 10.1583 89.3583 9.90642C89.746 9.65453 90.225 9.52858 90.7951 9.52858C91.322 9.52858 91.7811 9.64127 92.1722 9.86665C92.5666 10.092 92.8715 10.4185 93.087 10.846C93.3057 11.2736 93.4134 11.7923 93.4101 12.4022V17.2644H91.6104V12.6806C91.6104 12.1702 91.4778 11.7708 91.2127 11.4824C90.9508 11.1941 90.5879 11.0499 90.1239 11.0499C89.809 11.0499 89.529 11.1195 89.2837 11.2587C89.0417 11.3946 88.8512 11.5918 88.712 11.8503C88.5761 12.1088 88.5081 12.422 88.5081 12.7899Z" fill="#808191"/>
</svg>
