<svg width="158" height="25" viewBox="0 0 158 25" fill="none" xmlns="http://www.w3.org/2000/svg">
<path d="M8.6717 13.0096H16.3517C16.3517 17.0057 12.8817 20.2917 8.6717 20.2917C4.4517 20.2917 0.991699 17.0057 0.991699 13.0096C0.991699 9.01341 4.4617 5.72747 8.6717 5.72747V13.0096Z" stroke="#808191" stroke-width="1.5" stroke-linecap="round" stroke-linejoin="round"/>
<path d="M11.812 10.0559V2.7738C13.852 2.7738 15.802 3.54084 17.242 4.90446C18.682 6.26807 19.492 8.12411 19.492 10.0464H11.812V10.0559Z" stroke="#808191" stroke-width="1.5" stroke-linecap="round" stroke-linejoin="round"/>
<path d="M49.0381 9.78687C48.9917 9.35268 48.7962 9.01461 48.4515 8.77266C48.1101 8.53071 47.666 8.40973 47.1191 8.40973C46.7346 8.40973 46.4048 8.46774 46.1297 8.58374C45.8547 8.69974 45.6442 8.85718 45.4984 9.05604C45.3525 9.2549 45.278 9.48194 45.2746 9.73715C45.2746 9.94927 45.3227 10.1332 45.4188 10.289C45.5182 10.4448 45.6525 10.5773 45.8215 10.6867C45.9905 10.7928 46.1778 10.8823 46.3833 10.9552C46.5888 11.0281 46.7959 11.0894 47.0047 11.1391L47.9593 11.3778C48.3438 11.4673 48.7133 11.5882 49.068 11.7407C49.4259 11.8932 49.7458 12.0854 50.0275 12.3174C50.3125 12.5494 50.5379 12.8295 50.7036 13.1576C50.8693 13.4857 50.9522 13.8702 50.9522 14.311C50.9522 14.9076 50.7997 15.4329 50.4948 15.887C50.1899 16.3378 49.7491 16.6907 49.1724 16.946C48.599 17.1979 47.9046 17.3238 47.0893 17.3238C46.2971 17.3238 45.6094 17.2012 45.0261 16.9559C44.446 16.7106 43.992 16.3527 43.6638 15.882C43.339 15.4114 43.1634 14.838 43.1369 14.1619H44.9515C44.978 14.5165 45.0874 14.8115 45.2796 15.0468C45.4718 15.2821 45.7221 15.4578 46.0303 15.5738C46.3419 15.6898 46.6899 15.7478 47.0744 15.7478C47.4754 15.7478 47.8267 15.6881 48.1283 15.5688C48.4333 15.4462 48.6719 15.2772 48.8442 15.0617C49.0166 14.843 49.1044 14.5878 49.1077 14.2961C49.1044 14.0309 49.0265 13.8122 48.8741 13.6398C48.7216 13.4642 48.5078 13.3184 48.2327 13.2023C47.961 13.083 47.6428 12.977 47.2782 12.8842L46.1198 12.5859C45.2813 12.3704 44.6184 12.044 44.1312 11.6065C43.6473 11.1657 43.4053 10.5807 43.4053 9.8515C43.4053 9.25159 43.5677 8.72626 43.8925 8.2755C44.2207 7.82474 44.6664 7.47508 45.2299 7.2265C45.7933 6.9746 46.4314 6.84865 47.144 6.84865C47.8665 6.84865 48.4995 6.9746 49.0431 7.2265C49.59 7.47508 50.0192 7.82143 50.3307 8.26556C50.6423 8.70637 50.803 9.21347 50.813 9.78687H49.0381ZM55.8977 17.3188C55.1321 17.3188 54.4708 17.1597 53.914 16.8416C53.3605 16.5201 52.9346 16.066 52.6363 15.4793C52.338 14.8894 52.1889 14.195 52.1889 13.3962C52.1889 12.6107 52.338 11.9213 52.6363 11.3281C52.9379 10.7315 53.3589 10.2675 53.8991 9.93601C54.4393 9.60126 55.0741 9.43388 55.8032 9.43388C56.2739 9.43388 56.718 9.51011 57.1356 9.66258C57.5565 9.81172 57.9277 10.0437 58.2492 10.3586C58.5741 10.6735 58.8293 11.0745 59.0149 11.5617C59.2005 12.0456 59.2933 12.6223 59.2933 13.2918V13.8437H53.034V12.6306H57.5681C57.5648 12.2859 57.4902 11.9793 57.3444 11.7109C57.1986 11.4391 56.9947 11.2253 56.7329 11.0695C56.4744 10.9138 56.1728 10.8359 55.8281 10.8359C55.4602 10.8359 55.137 10.9254 54.8586 11.1043C54.5802 11.28 54.3631 11.512 54.2073 11.8004C54.0549 12.0854 53.977 12.3986 53.9737 12.74V13.7989C53.9737 14.2431 54.0549 14.6242 54.2173 14.9424C54.3797 15.2573 54.6067 15.4992 54.8984 15.6683C55.1901 15.834 55.5314 15.9168 55.9225 15.9168C56.1844 15.9168 56.4214 15.8804 56.6335 15.8075C56.8456 15.7312 57.0295 15.6202 57.1853 15.4744C57.3411 15.3285 57.4588 15.1479 57.5383 14.9325L59.2187 15.1214C59.1126 15.5655 58.9105 15.9533 58.6122 16.2847C58.3172 16.6129 57.9393 16.8681 57.4786 17.0504C57.0179 17.2293 56.491 17.3188 55.8977 17.3188ZM64.1468 17.3188C63.3845 17.3188 62.7299 17.1514 62.183 16.8167C61.6395 16.4819 61.2202 16.0196 60.9252 15.4296C60.6335 14.8363 60.4877 14.1536 60.4877 13.3813C60.4877 12.6058 60.6369 11.9213 60.9351 11.3281C61.2334 10.7315 61.6544 10.2675 62.1979 9.93601C62.7448 9.60126 63.3911 9.43388 64.1369 9.43388C64.7566 9.43388 65.3052 9.54823 65.7824 9.77692C66.263 10.0023 66.6458 10.3221 66.9309 10.7364C67.2159 11.1474 67.3783 11.628 67.4181 12.1782H65.6979C65.6283 11.8103 65.4626 11.5037 65.2008 11.2585C64.9422 11.0099 64.5959 10.8856 64.1617 10.8856C63.7938 10.8856 63.4707 10.985 63.1922 11.1839C62.9138 11.3794 62.6967 11.6612 62.541 12.0291C62.3885 12.397 62.3123 12.8378 62.3123 13.3515C62.3123 13.8719 62.3885 14.3193 62.541 14.6938C62.6934 15.065 62.9072 15.3517 63.1823 15.5539C63.4607 15.7528 63.7872 15.8522 64.1617 15.8522C64.4269 15.8522 64.6638 15.8025 64.8726 15.7031C65.0848 15.6003 65.2621 15.4528 65.4046 15.2606C65.5471 15.0684 65.6449 14.8347 65.6979 14.5596H67.4181C67.375 15.0998 67.2159 15.5788 66.9408 15.9964C66.6657 16.4107 66.2912 16.7355 65.8172 16.9708C65.3433 17.2028 64.7865 17.3188 64.1468 17.3188ZM72.7091 9.53331V10.9254H68.3192V9.53331H72.7091ZM69.403 7.70377H71.2027V14.8728C71.2027 15.1148 71.2392 15.3004 71.3121 15.4296C71.3883 15.5556 71.4878 15.6417 71.6104 15.6881C71.733 15.7345 71.8689 15.7577 72.0181 15.7577C72.1308 15.7577 72.2335 15.7495 72.3263 15.7329C72.4224 15.7163 72.4953 15.7014 72.5451 15.6881L72.8483 17.0951C72.7522 17.1282 72.6147 17.1647 72.4357 17.2045C72.26 17.2443 72.0446 17.2675 71.7894 17.2741C71.3386 17.2873 70.9326 17.2194 70.5713 17.0702C70.2101 16.9178 69.9234 16.6825 69.7112 16.3643C69.5024 16.0461 69.3997 15.6484 69.403 15.1711V7.70377ZM74.2143 17.1697V9.53331H76.014V17.1697H74.2143ZM75.1191 8.44951C74.8341 8.44951 74.5888 8.35505 74.3833 8.16613C74.1778 7.97389 74.0751 7.74354 74.0751 7.47508C74.0751 7.20329 74.1778 6.97294 74.3833 6.78402C74.5888 6.59179 74.8341 6.49567 75.1191 6.49567C75.4074 6.49567 75.6527 6.59179 75.8549 6.78402C76.0604 6.97294 76.1631 7.20329 76.1631 7.47508C76.1631 7.74354 76.0604 7.97389 75.8549 8.16613C75.6527 8.35505 75.4074 8.44951 75.1191 8.44951ZM81.1956 17.3188C80.4499 17.3188 79.8036 17.1548 79.2567 16.8266C78.7098 16.4985 78.2856 16.0395 77.984 15.4495C77.6857 14.8595 77.5365 14.1702 77.5365 13.3813C77.5365 12.5925 77.6857 11.9014 77.984 11.3082C78.2856 10.7149 78.7098 10.2542 79.2567 9.92607C79.8036 9.59794 80.4499 9.43388 81.1956 9.43388C81.9414 9.43388 82.5877 9.59794 83.1345 9.92607C83.6814 10.2542 84.104 10.7149 84.4023 11.3082C84.7039 11.9014 84.8547 12.5925 84.8547 13.3813C84.8547 14.1702 84.7039 14.8595 84.4023 15.4495C84.104 16.0395 83.6814 16.4985 83.1345 16.8266C82.5877 17.1548 81.9414 17.3188 81.1956 17.3188ZM81.2056 15.8771C81.6099 15.8771 81.948 15.766 82.2198 15.544C82.4916 15.3186 82.6937 15.017 82.8263 14.6391C82.9622 14.2613 83.0301 13.8404 83.0301 13.3764C83.0301 12.909 82.9622 12.4864 82.8263 12.1086C82.6937 11.7274 82.4916 11.4242 82.2198 11.1988C81.948 10.9734 81.6099 10.8607 81.2056 10.8607C80.7913 10.8607 80.4466 10.9734 80.1715 11.1988C79.8997 11.4242 79.6959 11.7274 79.56 12.1086C79.4274 12.4864 79.3611 12.909 79.3611 13.3764C79.3611 13.8404 79.4274 14.2613 79.56 14.6391C79.6959 15.017 79.8997 15.3186 80.1715 15.544C80.4466 15.766 80.7913 15.8771 81.2056 15.8771ZM88.182 12.6952V17.1697H86.3822V9.53331H88.1024V10.8309H88.1919C88.3676 10.4033 88.6476 10.0636 89.0321 9.81172C89.4199 9.55983 89.8988 9.43388 90.4689 9.43388C90.9959 9.43388 91.4549 9.54657 91.846 9.77195C92.2404 9.99733 92.5454 10.3238 92.7608 10.7514C92.9795 11.1789 93.0873 11.6976 93.0839 12.3075V17.1697H91.2842V12.5859C91.2842 12.0755 91.1516 11.6761 90.8865 11.3877C90.6247 11.0994 90.2617 10.9552 89.7977 10.9552C89.4829 10.9552 89.2028 11.0248 88.9575 11.164C88.7156 11.2999 88.525 11.4971 88.3858 11.7556C88.2499 12.0141 88.182 12.3273 88.182 12.6952ZM102.095 17.3089C101.608 17.3056 101.132 17.2211 100.668 17.0553C100.204 16.8863 99.7865 16.6129 99.4153 16.235C99.044 15.8539 98.7491 15.3484 98.5303 14.7187C98.3116 14.0856 98.2039 13.3018 98.2072 12.3671C98.2072 11.4954 98.3 10.7182 98.4856 10.0354C98.6712 9.35268 98.938 8.77597 99.286 8.30533C99.634 7.83137 100.053 7.4701 100.544 7.22152C101.038 6.97294 101.59 6.84865 102.199 6.84865C102.839 6.84865 103.406 6.9746 103.9 7.2265C104.397 7.47839 104.798 7.82309 105.103 8.26059C105.408 8.69477 105.597 9.1853 105.67 9.73218H103.855C103.762 9.34108 103.572 9.02953 103.283 8.79752C102.998 8.5622 102.637 8.44454 102.199 8.44454C101.493 8.44454 100.95 8.75112 100.569 9.36428C100.191 9.97744 100 10.8193 99.9969 11.8898H100.067C100.229 11.5982 100.439 11.3479 100.698 11.1391C100.956 10.9303 101.248 10.7696 101.573 10.6569C101.901 10.5409 102.247 10.4829 102.612 10.4829C103.209 10.4829 103.744 10.6254 104.218 10.9104C104.695 11.1955 105.073 11.5882 105.351 12.0887C105.63 12.5859 105.767 13.1559 105.764 13.7989C105.767 14.4684 105.615 15.07 105.307 15.6036C104.998 16.1339 104.569 16.5515 104.019 16.8565C103.469 17.1614 102.827 17.3122 102.095 17.3089ZM102.085 15.8174C102.446 15.8174 102.769 15.7296 103.054 15.5539C103.34 15.3782 103.565 15.1413 103.731 14.843C103.896 14.5447 103.978 14.2099 103.974 13.8387C103.978 13.4741 103.898 13.1443 103.736 12.8494C103.576 12.5544 103.356 12.3207 103.074 12.1484C102.793 11.976 102.471 11.8898 102.11 11.8898C101.841 11.8898 101.591 11.9412 101.359 12.044C101.127 12.1467 100.925 12.2892 100.753 12.4715C100.58 12.6505 100.444 12.8593 100.345 13.0979C100.249 13.3333 100.199 13.5852 100.196 13.8536C100.199 14.2083 100.282 14.5347 100.444 14.833C100.607 15.1313 100.831 15.37 101.116 15.5489C101.401 15.7279 101.724 15.8174 102.085 15.8174Z" fill="#808191"/>
</svg>
