<svg width="90" height="25" viewBox="0 0 90 25" fill="none" xmlns="http://www.w3.org/2000/svg">
<path d="M42.5873 17.7375V7.55573H44.4317V11.8661H49.1498V7.55573H50.9992V17.7375H49.1498V13.4123H44.4317V17.7375H42.5873ZM56.2567 17.8867C55.5109 17.8867 54.8646 17.7226 54.3177 17.3945C53.7709 17.0664 53.3466 16.6073 53.045 16.0174C52.7467 15.4274 52.5976 14.738 52.5976 13.9492C52.5976 13.1604 52.7467 12.4693 53.045 11.876C53.3466 11.2828 53.7709 10.8221 54.3177 10.4939C54.8646 10.1658 55.5109 10.0018 56.2567 10.0018C57.0024 10.0018 57.6487 10.1658 58.1956 10.4939C58.7425 10.8221 59.165 11.2828 59.4633 11.876C59.7649 12.4693 59.9157 13.1604 59.9157 13.9492C59.9157 14.738 59.7649 15.4274 59.4633 16.0174C59.165 16.6073 58.7425 17.0664 58.1956 17.3945C57.6487 17.7226 57.0024 17.8867 56.2567 17.8867ZM56.2666 16.4449C56.671 16.4449 57.009 16.3339 57.2808 16.1118C57.5526 15.8865 57.7548 15.5848 57.8873 15.207C58.0232 14.8292 58.0912 14.4082 58.0912 13.9442C58.0912 13.4769 58.0232 13.0543 57.8873 12.6765C57.7548 12.2953 57.5526 11.992 57.2808 11.7667C57.009 11.5413 56.671 11.4286 56.2666 11.4286C55.8523 11.4286 55.5076 11.5413 55.2325 11.7667C54.9607 11.992 54.7569 12.2953 54.621 12.6765C54.4884 13.0543 54.4221 13.4769 54.4221 13.9442C54.4221 14.4082 54.4884 14.8292 54.621 15.207C54.7569 15.5848 54.9607 15.8865 55.2325 16.1118C55.5076 16.3339 55.8523 16.4449 56.2666 16.4449ZM61.4433 17.7375V10.1012H63.1634V11.3988H63.2529C63.412 10.9613 63.6755 10.6199 64.0434 10.3746C64.4113 10.126 64.8505 10.0018 65.3609 10.0018C65.8779 10.0018 66.3138 10.1277 66.6684 10.3796C67.0264 10.6282 67.2783 10.9679 67.4241 11.3988H67.5036C67.6727 10.9745 67.9577 10.6365 68.3588 10.3846C68.7631 10.1294 69.242 10.0018 69.7955 10.0018C70.4982 10.0018 71.0716 10.2238 71.5157 10.6679C71.9598 11.1121 72.1819 11.76 72.1819 12.6118V17.7375H70.3772V12.8902C70.3772 12.4163 70.2513 12.0699 69.9994 11.8512C69.7475 11.6291 69.4392 11.5181 69.0747 11.5181C68.6405 11.5181 68.3008 11.654 68.0555 11.9258C67.8135 12.1942 67.6926 12.5439 67.6926 12.9748V17.7375H65.9276V12.8157C65.9276 12.4213 65.8083 12.1064 65.5697 11.8711C65.3344 11.6357 65.0261 11.5181 64.645 11.5181C64.3865 11.5181 64.1511 11.5844 63.939 11.717C63.7269 11.8462 63.5579 12.0302 63.4319 12.2688C63.306 12.5041 63.243 12.7792 63.243 13.0941V17.7375H61.4433ZM77.3884 17.8867C76.6228 17.8867 75.9616 17.7276 75.4047 17.4094C74.8512 17.0879 74.4253 16.6339 74.127 16.0472C73.8287 15.4572 73.6796 14.7629 73.6796 13.9641C73.6796 13.1786 73.8287 12.4892 74.127 11.8959C74.4287 11.2993 74.8496 10.8353 75.3898 10.5039C75.9301 10.1691 76.5648 10.0018 77.2939 10.0018C77.7646 10.0018 78.2087 10.078 78.6263 10.2304C79.0473 10.3796 79.4185 10.6116 79.74 10.9265C80.0648 11.2413 80.32 11.6424 80.5056 12.1296C80.6912 12.6135 80.784 13.1902 80.784 13.8597V14.4116H74.5248V13.1985H79.0589C79.0555 12.8538 78.981 12.5472 78.8351 12.2787C78.6893 12.007 78.4855 11.7932 78.2236 11.6374C77.9651 11.4816 77.6635 11.4037 77.3188 11.4037C76.9509 11.4037 76.6278 11.4932 76.3493 11.6722C76.0709 11.8479 75.8538 12.0799 75.6981 12.3682C75.5456 12.6533 75.4677 12.9665 75.4644 13.3079V14.3668C75.4644 14.8109 75.5456 15.1921 75.708 15.5103C75.8704 15.8251 76.0974 16.0671 76.3891 16.2361C76.6808 16.4018 77.0222 16.4847 77.4133 16.4847C77.6751 16.4847 77.9121 16.4482 78.1242 16.3753C78.3363 16.2991 78.5203 16.1881 78.676 16.0422C78.8318 15.8964 78.9495 15.7158 79.029 15.5003L80.7094 15.6893C80.6034 16.1334 80.4012 16.5212 80.1029 16.8526C79.8079 17.1807 79.4301 17.4359 78.9694 17.6182C78.5087 17.7972 77.9817 17.8867 77.3884 17.8867Z" fill="#808191"/>
<path fill-rule="evenodd" clip-rule="evenodd" d="M13.6288 4.30081H16.5186C17.7142 4.30081 18.6841 5.22724 18.6841 6.37012V9.12948C18.6841 10.2715 17.7142 11.1988 16.5186 11.1988H13.6288C12.4323 11.1988 11.4624 10.2715 11.4624 9.12948V6.37012C11.4624 5.22724 12.4323 4.30081 13.6288 4.30081Z" stroke="#808191" stroke-width="1.5" stroke-linecap="round" stroke-linejoin="round"/>
<path fill-rule="evenodd" clip-rule="evenodd" d="M3.15811 4.30081H6.04695C7.24346 4.30081 8.21336 5.22724 8.21336 6.37012V9.12948C8.21336 10.2715 7.24346 11.1988 6.04695 11.1988H3.15811C1.9616 11.1988 0.991699 10.2715 0.991699 9.12948V6.37012C0.991699 5.22724 1.9616 4.30081 3.15811 4.30081Z" stroke="#808191" stroke-width="1.5" stroke-linecap="round" stroke-linejoin="round"/>
<path fill-rule="evenodd" clip-rule="evenodd" d="M3.15817 14.1573H6.04701C7.24352 14.1573 8.21342 15.0838 8.21342 16.2275V18.986C8.21342 20.1289 7.24352 21.0553 6.04701 21.0553H3.15817C1.96166 21.0553 0.99176 20.1289 0.99176 18.986V16.2275C0.99176 15.0838 1.96166 14.1573 3.15817 14.1573Z" stroke="#808191" stroke-width="1.5" stroke-linecap="round" stroke-linejoin="round"/>
<path fill-rule="evenodd" clip-rule="evenodd" d="M13.6291 14.1573H16.5188C17.7144 14.1573 18.6843 15.0838 18.6843 16.2275V18.986C18.6843 20.1289 17.7144 21.0553 16.5188 21.0553H13.6291C12.4325 21.0553 11.4626 20.1289 11.4626 18.986V16.2275C11.4626 15.0838 12.4325 14.1573 13.6291 14.1573Z" stroke="#808191" stroke-width="1.5" stroke-linecap="round" stroke-linejoin="round"/>
</svg>
