<svg width="155" height="25" viewBox="0 0 155 25" fill="none" xmlns="http://www.w3.org/2000/svg">
<path d="M46.9341 9.97623C46.8877 9.54204 46.6922 9.20397 46.3475 8.96202C46.0061 8.72007 45.562 8.5991 45.0151 8.5991C44.6306 8.5991 44.3008 8.6571 44.0257 8.7731C43.7507 8.88911 43.5402 9.04654 43.3944 9.2454C43.2485 9.44427 43.1739 9.6713 43.1706 9.92651C43.1706 10.1386 43.2187 10.3226 43.3148 10.4784C43.4142 10.6341 43.5485 10.7667 43.7175 10.8761C43.8865 10.9821 44.0738 11.0716 44.2793 11.1446C44.4848 11.2175 44.6919 11.2788 44.9007 11.3285L45.8553 11.5671C46.2398 11.6566 46.6093 11.7776 46.964 11.9301C47.3219 12.0825 47.6417 12.2748 47.9235 12.5068C48.2085 12.7388 48.4339 13.0188 48.5996 13.347C48.7653 13.6751 48.8482 14.0596 48.8482 14.5004C48.8482 15.097 48.6957 15.6223 48.3908 16.0764C48.0859 16.5271 47.6451 16.8801 47.0684 17.1353C46.495 17.3872 45.8006 17.5132 44.9853 17.5132C44.1931 17.5132 43.5054 17.3905 42.9221 17.1453C42.342 16.9 41.888 16.542 41.5598 16.0714C41.235 15.6008 41.0594 15.0274 41.0328 14.3512H42.8475C42.874 14.7059 42.9834 15.0008 43.1756 15.2362C43.3678 15.4715 43.6181 15.6472 43.9263 15.7632C44.2379 15.8792 44.5859 15.9372 44.9703 15.9372C45.3714 15.9372 45.7227 15.8775 46.0243 15.7582C46.3292 15.6356 46.5679 15.4665 46.7402 15.2511C46.9126 15.0323 47.0004 14.7771 47.0037 14.4855C47.0004 14.2203 46.9225 14.0016 46.7701 13.8292C46.6176 13.6535 46.4038 13.5077 46.1287 13.3917C45.8569 13.2724 45.5388 13.1663 45.1742 13.0735L44.0158 12.7752C43.1773 12.5598 42.5144 12.2333 42.0272 11.7958C41.5433 11.355 41.3013 10.77 41.3013 10.0409C41.3013 9.44095 41.4637 8.91562 41.7885 8.46486C42.1167 8.01411 42.5624 7.66444 43.1259 7.41586C43.6893 7.16396 44.3274 7.03802 45.04 7.03802C45.7625 7.03802 46.3955 7.16396 46.9391 7.41586C47.486 7.66444 47.9152 8.01079 48.2267 8.45492C48.5383 8.89573 48.699 9.40284 48.709 9.97623H46.9341ZM53.7937 17.5082C53.0281 17.5082 52.3668 17.3491 51.81 17.0309C51.2565 16.7094 50.8306 16.2553 50.5323 15.6687C50.234 15.0787 50.0849 14.3844 50.0849 13.5856C50.0849 12.8001 50.234 12.1107 50.5323 11.5174C50.8339 10.9208 51.2549 10.4568 51.7951 10.1254C52.3353 9.79062 52.9701 9.62324 53.6992 9.62324C54.1699 9.62324 54.614 9.69947 55.0316 9.85194C55.4525 10.0011 55.8237 10.2331 56.1452 10.548C56.4701 10.8628 56.7253 11.2639 56.9109 11.7511C57.0965 12.235 57.1893 12.8117 57.1893 13.4812V14.033H50.93V12.82H55.4641C55.4608 12.4753 55.3862 12.1687 55.2404 11.9002C55.0946 11.6285 54.8907 11.4147 54.6289 11.2589C54.3704 11.1031 54.0688 11.0252 53.7241 11.0252C53.3562 11.0252 53.033 11.1147 52.7546 11.2937C52.4762 11.4694 52.2591 11.7014 52.1033 11.9897C51.9509 12.2748 51.873 12.588 51.8697 12.9294V13.9883C51.8697 14.4324 51.9509 14.8136 52.1133 15.1318C52.2757 15.4466 52.5027 15.6886 52.7944 15.8576C53.0861 16.0233 53.4274 16.1062 53.8185 16.1062C54.0804 16.1062 54.3174 16.0697 54.5295 15.9968C54.7416 15.9206 54.9255 15.8096 55.0813 15.6637C55.2371 15.5179 55.3548 15.3373 55.4343 15.1218L57.1147 15.3107C57.0086 15.7549 56.8065 16.1427 56.5082 16.4741C56.2132 16.8022 55.8353 17.0574 55.3746 17.2397C54.9139 17.4187 54.387 17.5082 53.7937 17.5082ZM62.0428 17.5082C61.2805 17.5082 60.6259 17.3408 60.079 17.0061C59.5355 16.6713 59.1162 16.2089 58.8212 15.619C58.5295 15.0257 58.3837 14.3429 58.3837 13.5707C58.3837 12.7951 58.5328 12.1107 58.8311 11.5174C59.1294 10.9208 59.5504 10.4568 60.0939 10.1254C60.6408 9.79062 61.2871 9.62324 62.0328 9.62324C62.6526 9.62324 63.2012 9.73759 63.6784 9.96628C64.159 10.1917 64.5418 10.5115 64.8269 10.9258C65.1119 11.3368 65.2743 11.8174 65.3141 12.3676H63.5939C63.5243 11.9997 63.3586 11.6931 63.0968 11.4478C62.8382 11.1992 62.4919 11.0749 62.0577 11.0749C61.6898 11.0749 61.3667 11.1744 61.0882 11.3732C60.8098 11.5688 60.5927 11.8505 60.437 12.2184C60.2845 12.5863 60.2083 13.0271 60.2083 13.5409C60.2083 14.0612 60.2845 14.5087 60.437 14.8832C60.5894 15.2544 60.8032 15.5411 61.0783 15.7433C61.3567 15.9421 61.6832 16.0416 62.0577 16.0416C62.3229 16.0416 62.5598 15.9919 62.7686 15.8924C62.9808 15.7897 63.1581 15.6422 63.3006 15.4499C63.4431 15.2577 63.5409 15.024 63.5939 14.749H65.3141C65.271 15.2892 65.1119 15.7681 64.8368 16.1857C64.5617 16.6 64.1872 16.9249 63.7132 17.1602C63.2393 17.3922 62.6825 17.5082 62.0428 17.5082ZM70.6051 9.72268V11.1147H66.2152V9.72268H70.6051ZM67.299 7.89313H69.0987V15.0622C69.0987 15.3041 69.1352 15.4897 69.2081 15.619C69.2843 15.7449 69.3838 15.8311 69.5064 15.8775C69.629 15.9239 69.7649 15.9471 69.9141 15.9471C70.0268 15.9471 70.1295 15.9388 70.2223 15.9222C70.3184 15.9057 70.3913 15.8908 70.4411 15.8775L70.7443 17.2845C70.6482 17.3176 70.5107 17.3541 70.3317 17.3938C70.156 17.4336 69.9406 17.4568 69.6854 17.4634C69.2346 17.4767 68.8286 17.4088 68.4673 17.2596C68.1061 17.1071 67.8194 16.8718 67.6072 16.5536C67.3984 16.2355 67.2957 15.8377 67.299 15.3605V7.89313ZM72.1103 17.359V9.72268H73.91V17.359H72.1103ZM73.0151 8.63887C72.7301 8.63887 72.4848 8.54441 72.2793 8.35549C72.0738 8.16325 71.9711 7.9329 71.9711 7.66444C71.9711 7.39266 72.0738 7.16231 72.2793 6.97339C72.4848 6.78115 72.7301 6.68503 73.0151 6.68503C73.3034 6.68503 73.5487 6.78115 73.7509 6.97339C73.9564 7.16231 74.0591 7.39266 74.0591 7.66444C74.0591 7.9329 73.9564 8.16325 73.7509 8.35549C73.5487 8.54441 73.3034 8.63887 73.0151 8.63887ZM79.0916 17.5082C78.3459 17.5082 77.6996 17.3441 77.1527 17.016C76.6058 16.6879 76.1816 16.2288 75.88 15.6389C75.5817 15.0489 75.4325 14.3595 75.4325 13.5707C75.4325 12.7819 75.5817 12.0908 75.88 11.4975C76.1816 10.9043 76.6058 10.4436 77.1527 10.1154C77.6996 9.78731 78.3459 9.62324 79.0916 9.62324C79.8374 9.62324 80.4837 9.78731 81.0305 10.1154C81.5774 10.4436 82 10.9043 82.2983 11.4975C82.5999 12.0908 82.7507 12.7819 82.7507 13.5707C82.7507 14.3595 82.5999 15.0489 82.2983 15.6389C82 16.2288 81.5774 16.6879 81.0305 17.016C80.4837 17.3441 79.8374 17.5082 79.0916 17.5082ZM79.1016 16.0664C79.5059 16.0664 79.844 15.9554 80.1158 15.7333C80.3875 15.508 80.5897 15.2063 80.7223 14.8285C80.8582 14.4507 80.9261 14.0297 80.9261 13.5657C80.9261 13.0984 80.8582 12.6758 80.7223 12.298C80.5897 11.9168 80.3875 11.6135 80.1158 11.3882C79.844 11.1628 79.5059 11.0501 79.1016 11.0501C78.6873 11.0501 78.3426 11.1628 78.0675 11.3882C77.7957 11.6135 77.5919 11.9168 77.456 12.298C77.3234 12.6758 77.2571 13.0984 77.2571 13.5657C77.2571 14.0297 77.3234 14.4507 77.456 14.8285C77.5919 15.2063 77.7957 15.508 78.0675 15.7333C78.3426 15.9554 78.6873 16.0664 79.1016 16.0664ZM86.0779 12.8846V17.359H84.2782V9.72268H85.9984V11.0203H86.0879C86.2636 10.5927 86.5436 10.253 86.9281 10.0011C87.3159 9.74919 87.7948 9.62324 88.3649 9.62324C88.8919 9.62324 89.3509 9.73593 89.742 9.96131C90.1364 10.1867 90.4413 10.5132 90.6568 10.9407C90.8755 11.3683 90.9833 11.887 90.9799 12.4968V17.359H89.1802V12.7752C89.1802 12.2648 89.0476 11.8654 88.7825 11.5771C88.5207 11.2887 88.1577 11.1446 87.6937 11.1446C87.3788 11.1446 87.0988 11.2142 86.8535 11.3534C86.6116 11.4892 86.421 11.6865 86.2818 11.945C86.1459 12.2035 86.0779 12.5167 86.0779 12.8846ZM96.0783 15.4698V14.0032L100.399 7.17722H101.622V9.26529H100.876L97.9675 13.874V13.9535H103.998V15.4698H96.0783ZM100.936 17.359V15.0224L100.955 14.3661V7.17722H102.695V17.359H100.936Z" fill="#808191"/>
<path d="M10.4882 17.7327V7.40222H11.1871V17.7327H10.4882ZM12.6743 10.6063C12.6289 10.2243 12.4414 9.92834 12.1118 9.7185C11.7823 9.50597 11.3675 9.39971 10.8675 9.39971C10.5096 9.39971 10.1999 9.45351 9.93853 9.56112C9.67717 9.66604 9.47404 9.81131 9.32916 9.99694C9.18711 10.1799 9.11609 10.3884 9.11609 10.6224C9.11609 10.8188 9.16438 10.9883 9.26098 11.1309C9.36041 11.2734 9.48967 11.3932 9.64876 11.49C9.81069 11.5842 9.98399 11.6635 10.1686 11.7281C10.3533 11.79 10.5309 11.8411 10.7013 11.8814L11.5536 12.0913C11.832 12.1558 12.1175 12.2433 12.4101 12.3536C12.7027 12.4639 12.974 12.6091 13.224 12.7894C13.474 12.9696 13.6757 13.1929 13.8292 13.4593C13.9854 13.7256 14.0635 14.0444 14.0635 14.4156C14.0635 14.8837 13.9357 15.2994 13.68 15.6625C13.4272 16.0257 13.0593 16.3122 12.5763 16.5221C12.0962 16.7319 11.5152 16.8368 10.8334 16.8368C10.18 16.8368 9.61467 16.7386 9.1374 16.5422C8.66012 16.3459 8.28654 16.0674 8.01666 15.7069C7.74677 15.3438 7.59762 14.9133 7.56921 14.4156H8.89024C8.91581 14.7142 9.01808 14.9631 9.19706 15.1622C9.37887 15.3585 9.61041 15.5052 9.89166 15.602C10.1757 15.6962 10.4868 15.7432 10.8249 15.7432C11.1971 15.7432 11.528 15.6881 11.8178 15.5778C12.1104 15.4648 12.3405 15.3088 12.5081 15.1097C12.6757 14.9079 12.7596 14.6725 12.7596 14.4035C12.7596 14.1587 12.6857 13.9583 12.538 13.8023C12.3931 13.6462 12.1956 13.5171 11.9456 13.4149C11.6985 13.3126 11.4186 13.2225 11.1061 13.1445L10.0749 12.8782C9.37603 12.6979 8.82206 12.4329 8.41296 12.0832C8.00671 11.7335 7.80359 11.2708 7.80359 10.6951C7.80359 10.2189 7.93995 9.80324 8.21268 9.44813C8.48541 9.09302 8.85473 8.81728 9.32063 8.62089C9.78654 8.42182 10.3121 8.32228 10.8973 8.32228C11.4882 8.32228 12.0096 8.42047 12.4613 8.61686C12.9158 8.81324 13.2738 9.08361 13.5351 9.42796C13.7965 9.76962 13.9329 10.1624 13.9442 10.6063H12.6743Z" fill="#808191"/>
<path d="M4.77795 6.49101C5.06953 6.49101 5.36055 6.48633 5.65158 6.49205C6.03375 6.49932 6.27151 6.71711 6.26822 7.04666C6.26492 7.37049 6.01728 7.59192 5.63895 7.594C4.88832 7.59764 4.1377 7.59816 3.38707 7.594C3.0049 7.59192 2.76274 7.37829 2.75725 7.01547C2.74627 6.28777 2.74627 5.56006 2.75835 4.83236C2.76384 4.49553 3.02302 4.26631 3.34863 4.26838C3.6737 4.27046 3.91751 4.50125 3.93288 4.83911C3.94386 5.07874 3.93508 5.31992 3.93508 5.62556C4.05917 5.51744 4.13495 5.44831 4.21347 5.38281C7.08583 2.99178 10.3876 2.25004 14.0177 3.35875C17.6264 4.46123 19.8536 6.87617 20.7031 10.3806C21.1511 12.2295 20.9441 14.0456 20.2111 15.8088C20.0749 16.1362 19.8443 16.2901 19.5576 16.2542C19.1513 16.2033 18.9404 15.8436 19.103 15.4527C19.4566 14.6002 19.6696 13.7213 19.7328 12.8054C20.0019 8.8836 17.2283 5.22844 13.1869 4.27566C10.0927 3.5464 7.33952 4.22888 4.95641 6.23891C4.88228 6.30128 4.79223 6.3465 4.70931 6.40004C4.73238 6.43019 4.75489 6.46034 4.77795 6.49101Z" fill="#808191"/>
<path d="M17.1527 18.1366C16.883 18.1366 16.6129 18.1387 16.3433 18.1361C15.9221 18.1319 15.6574 17.9209 15.6509 17.5877C15.6443 17.243 15.9133 17.0201 16.3488 17.0185C17.0538 17.0159 17.7583 17.0154 18.4634 17.0185C18.9466 17.0206 19.1651 17.2306 19.1657 17.688C19.1668 18.3637 19.1679 19.0395 19.1651 19.7152C19.164 20.1092 18.9323 20.3498 18.5671 20.3441C18.213 20.3384 18.0038 20.1092 17.9988 19.7173C17.9961 19.4948 17.9983 19.2718 17.9983 18.9989C17.9 19.0769 17.8401 19.1221 17.783 19.1699C14.8783 21.5989 11.5392 22.3698 7.86072 21.2221C4.15867 20.0671 1.93644 17.5518 1.16935 13.9356C0.798701 12.1896 1.02164 10.4702 1.71131 8.81047C1.85408 8.46689 2.07372 8.32862 2.39275 8.36968C2.77547 8.41958 2.95668 8.77616 2.83148 9.16341C2.6371 9.76585 2.40922 10.3662 2.29995 10.9837C1.57623 15.0922 4.21577 19.1148 8.44442 20.262C11.6259 21.1254 14.4835 20.4637 16.966 18.3819C17.039 18.3206 17.1285 18.2774 17.2103 18.226C17.1911 18.1963 17.1719 18.1667 17.1527 18.1366Z" fill="#808191"/>
<rect x="10.5063" y="7.97818" width="0.71814" height="9.34189" fill="#808191"/>
</svg>
