<svg width="66" height="29" viewBox="0 0 66 29" fill="none" xmlns="http://www.w3.org/2000/svg">
<path d="M28.3752 20.2734V7.54609H29.1906V20.2734H28.3752ZM30.7268 11.6178C30.6804 11.1836 30.4848 10.8456 30.1401 10.6036C29.7988 10.3617 29.3546 10.2407 28.8078 10.2407C28.4233 10.2407 28.0935 10.2987 27.8184 10.4147C27.5433 10.5307 27.3329 10.6881 27.187 10.887C27.0412 11.0859 26.9666 11.3129 26.9633 11.5681C26.9633 11.7802 27.0114 11.9642 27.1075 12.12C27.2069 12.2757 27.3411 12.4083 27.5102 12.5177C27.6792 12.6237 27.8665 12.7132 28.072 12.7862C28.2775 12.8591 28.4846 12.9204 28.6934 12.9701L29.648 13.2087C30.0324 13.2982 30.402 13.4192 30.7566 13.5717C31.1146 13.7241 31.4344 13.9164 31.7161 14.1484C32.0012 14.3804 32.2266 14.6604 32.3923 14.9886C32.558 15.3167 32.6409 15.7012 32.6409 16.142C32.6409 16.7386 32.4884 17.2639 32.1835 17.718C31.8785 18.1687 31.4377 18.5217 30.861 18.7769C30.2876 19.0288 29.5933 19.1548 28.7779 19.1548C27.9858 19.1548 27.298 19.0321 26.7147 18.7869C26.1347 18.5416 25.6806 18.1836 25.3525 17.713C25.0277 17.2424 24.852 16.669 24.8255 15.9928H26.6401C26.6667 16.3475 26.776 16.6424 26.9683 16.8778C27.1605 17.1131 27.4107 17.2888 27.719 17.4048C28.0305 17.5208 28.3785 17.5788 28.763 17.5788C29.1641 17.5788 29.5154 17.5191 29.817 17.3998C30.1219 17.2772 30.3605 17.1081 30.5329 16.8927C30.7052 16.6739 30.7931 16.4187 30.7964 16.1271C30.7931 15.8619 30.7152 15.6432 30.5627 15.4708C30.4103 15.2951 30.1965 15.1493 29.9214 15.0333C29.6496 14.914 29.3314 14.8079 28.9668 14.7151L27.8085 14.4168C26.9699 14.2014 26.307 13.8749 25.8198 13.4374C25.3359 12.9966 25.094 12.4116 25.094 11.6825C25.094 11.0826 25.2564 10.5572 25.5812 10.1065C25.9093 9.65571 26.3551 9.30604 26.9186 9.05746C27.482 8.80556 28.12 8.67962 28.8326 8.67962C29.5552 8.67962 30.1882 8.80556 30.7318 9.05746C31.2786 9.30604 31.7079 9.65239 32.0194 10.0965C32.331 10.5373 32.4917 11.0444 32.5016 11.6178H30.7268ZM37.9493 19.1945C37.1306 19.1945 36.428 18.9874 35.8413 18.5731C35.258 18.1555 34.8089 17.5539 34.494 16.7684C34.1825 15.9796 34.0267 15.03 34.0267 13.9197C34.03 12.8094 34.1874 11.8648 34.499 11.0859C34.8139 10.3037 35.263 9.70708 35.8463 9.2961C36.4329 8.88511 37.1339 8.67962 37.9493 8.67962C38.7646 8.67962 39.4656 8.88511 40.0523 9.2961C40.6389 9.70708 41.088 10.3037 41.3996 11.0859C41.7144 11.8681 41.8719 12.8127 41.8719 13.9197C41.8719 15.0333 41.7144 15.9845 41.3996 16.7734C41.088 17.5589 40.6389 18.1588 40.0523 18.5731C39.4689 18.9874 38.7679 19.1945 37.9493 19.1945ZM37.9493 17.6384C38.5856 17.6384 39.0878 17.3252 39.4557 16.6988C39.8269 16.0691 40.0125 15.1427 40.0125 13.9197C40.0125 13.111 39.928 12.4315 39.7589 11.8813C39.5899 11.3311 39.3513 10.9168 39.043 10.6384C38.7348 10.3567 38.3702 10.2158 37.9493 10.2158C37.3162 10.2158 36.8157 10.5307 36.4478 11.1604C36.08 11.7869 35.8943 12.7066 35.891 13.9197C35.8877 14.7317 35.9689 15.4145 36.1346 15.968C36.3037 16.5215 36.5423 16.9391 36.8505 17.2208C37.1588 17.4992 37.525 17.6384 37.9493 17.6384ZM44.2557 19.11C43.9541 19.11 43.6956 19.004 43.4802 18.7918C43.2647 18.5797 43.1587 18.3212 43.162 18.0163C43.1587 17.718 43.2647 17.4628 43.4802 17.2506C43.6956 17.0385 43.9541 16.9325 44.2557 16.9325C44.5474 16.9325 44.8009 17.0385 45.0164 17.2506C45.2351 17.4628 45.3462 17.718 45.3495 18.0163C45.3462 18.2184 45.2931 18.4024 45.1904 18.5681C45.091 18.7338 44.9584 18.8664 44.7927 18.9658C44.6303 19.062 44.4513 19.11 44.2557 19.11ZM50.5721 8.67962C51.0594 8.68293 51.5333 8.76911 51.994 8.93814C52.458 9.10386 52.8756 9.37564 53.2469 9.75348C53.6181 10.128 53.913 10.6301 54.1318 11.2599C54.3505 11.8896 54.4599 12.6685 54.4599 13.5965C54.4632 14.4715 54.3704 15.2537 54.1815 15.9431C53.9959 16.6292 53.7291 17.2092 53.3811 17.6832C53.0331 18.1571 52.6138 18.5184 52.1233 18.767C51.6327 19.0156 51.0809 19.1398 50.4677 19.1398C49.8247 19.1398 49.2547 19.0139 48.7575 18.762C48.2637 18.5101 47.8643 18.1654 47.5594 17.7279C47.2544 17.2904 47.0672 16.7899 46.9976 16.2265H48.8122C48.905 16.6308 49.0939 16.9523 49.379 17.191C49.6673 17.4263 50.0302 17.544 50.4677 17.544C51.1737 17.544 51.7173 17.2374 52.0984 16.6242C52.4796 16.0111 52.6701 15.1593 52.6701 14.0688H52.6005C52.4381 14.3605 52.2277 14.6124 51.9692 14.8245C51.7106 15.0333 51.4173 15.1941 51.0892 15.3067C50.7644 15.4194 50.4197 15.4758 50.0551 15.4758C49.4585 15.4758 48.9216 15.3333 48.4443 15.0482C47.9703 14.7632 47.5942 14.3721 47.3157 13.8749C47.0407 13.3778 46.9014 12.8094 46.8981 12.1697C46.8981 11.5068 47.0506 10.9119 47.3555 10.3849C47.6638 9.85457 48.093 9.43696 48.6432 9.13203C49.1934 8.82379 49.8363 8.67299 50.5721 8.67962ZM50.5771 10.1711C50.2192 10.1711 49.896 10.2589 49.6076 10.4346C49.3226 10.6069 49.0972 10.8423 48.9315 11.1406C48.7691 11.4355 48.6879 11.7653 48.6879 12.1299C48.6912 12.4912 48.7724 12.8193 48.9315 13.1143C49.0939 13.4093 49.3143 13.6429 49.5927 13.8153C49.8745 13.9876 50.196 14.0738 50.5572 14.0738C50.8257 14.0738 51.0759 14.0224 51.3079 13.9197C51.5399 13.8169 51.7421 13.6744 51.9145 13.4921C52.0901 13.3065 52.226 13.096 52.3221 12.8607C52.4216 12.6254 52.4696 12.3768 52.4663 12.115C52.4663 11.767 52.3835 11.4455 52.2177 11.1505C52.0553 10.8555 51.8316 10.6185 51.5466 10.4396C51.2648 10.2606 50.9417 10.1711 50.5771 10.1711ZM59.879 19.1945C59.0603 19.1945 58.3576 18.9874 57.771 18.5731C57.1877 18.1555 56.7386 17.5539 56.4237 16.7684C56.1121 15.9796 55.9564 15.03 55.9564 13.9197C55.9597 12.8094 56.1171 11.8648 56.4287 11.0859C56.7435 10.3037 57.1926 9.70708 57.776 9.2961C58.3626 8.88511 59.0636 8.67962 59.879 8.67962C60.6943 8.67962 61.3953 8.88511 61.9819 9.2961C62.5686 9.70708 63.0177 10.3037 63.3292 11.0859C63.6441 11.8681 63.8015 12.8127 63.8015 13.9197C63.8015 15.0333 63.6441 15.9845 63.3292 16.7734C63.0177 17.5589 62.5686 18.1588 61.9819 18.5731C61.3986 18.9874 60.6976 19.1945 59.879 19.1945ZM59.879 17.6384C60.5153 17.6384 61.0175 17.3252 61.3853 16.6988C61.7566 16.0691 61.9422 15.1427 61.9422 13.9197C61.9422 13.111 61.8576 12.4315 61.6886 11.8813C61.5196 11.3311 61.2809 10.9168 60.9727 10.6384C60.6645 10.3567 60.2999 10.2158 59.879 10.2158C59.2459 10.2158 58.7454 10.5307 58.3775 11.1604C58.0096 11.7869 57.824 12.7066 57.8207 13.9197C57.8174 14.7317 57.8986 15.4145 58.0643 15.968C58.2334 16.5215 58.472 16.9391 58.7802 17.2208C59.0885 17.4992 59.4547 17.6384 59.879 17.6384Z" fill="white"/>
<path d="M8.71187 21.9606C13.2519 21.9606 16.9323 18.143 16.9323 13.4337C16.9323 8.72442 13.2519 4.9068 8.71187 4.9068C4.17183 4.9068 0.491394 8.72442 0.491394 13.4337C0.491394 18.143 4.17183 21.9606 8.71187 21.9606Z" fill="#3772FF"/>
<path d="M4.88224 11.9609C5.65817 11.9609 6.36674 11.9609 7.12242 11.9609C6.88021 11.5916 6.66688 11.2543 6.43771 10.9289C6.40363 10.8801 6.29556 10.8721 6.22158 10.8716C5.59702 10.8671 4.97266 10.8761 4.34851 10.8621C4.25147 10.8601 4.12816 10.7864 4.06621 10.7057C3.89378 10.4794 3.74661 10.2313 3.56757 9.95822C3.66641 9.95026 3.73318 9.9398 3.79994 9.9398C4.76074 9.9388 5.72153 9.94277 6.68192 9.93581C6.83651 9.93481 6.92633 9.98663 7.01275 10.1202C7.56532 10.9742 8.12632 11.8228 8.70275 12.7003C8.75749 12.6301 8.80421 12.5792 8.8417 12.5219C9.36961 11.7197 9.89312 10.9149 10.4268 10.1172C10.4816 10.0355 10.5945 9.94677 10.6815 9.94577C11.6902 9.93381 12.6987 9.9383 13.7074 9.9393C13.7445 9.9393 13.7814 9.94976 13.8564 9.96072C13.6609 10.2602 13.4889 10.5367 13.3 10.8003C13.2645 10.8502 13.1607 10.8656 13.0887 10.8661C12.4641 10.8711 11.8398 10.8736 11.2152 10.8656C11.0711 10.8636 10.9832 10.9075 10.9048 11.0365C10.7232 11.337 10.5239 11.626 10.3049 11.9609C11.0586 11.9609 11.7706 11.9609 12.5419 11.9609C12.3288 12.2882 12.1533 12.5708 11.9607 12.8403C11.9252 12.8897 11.8199 12.9026 11.7465 12.9031C11.1543 12.9086 10.5614 12.9156 9.96951 12.9026C9.765 12.8981 9.63668 12.9549 9.52079 13.1408C9.25854 13.5629 9.25092 13.5524 9.52079 13.9505C9.78325 14.3372 10.0421 14.7269 10.2923 15.1225C10.7406 15.8311 10.7065 16.7544 10.2165 17.4076C9.71407 18.0778 8.87338 18.3454 8.10907 18.0783C7.34517 17.8113 6.81826 17.0703 6.81305 16.2272C6.81004 15.8121 6.92392 15.427 7.1569 15.0811C7.45966 14.6322 7.74978 14.1743 8.05434 13.7268C8.14116 13.5992 8.12732 13.514 8.06055 13.375C7.8775 12.9938 7.61705 12.8583 7.20202 12.8951C6.70157 12.9395 6.19431 12.9141 5.68985 12.8991C5.59141 12.8961 5.46549 12.8274 5.40394 12.7462C5.2287 12.5149 5.07873 12.2613 4.88224 11.9609ZM8.74747 14.397C8.70416 14.4309 8.6807 14.4413 8.66867 14.4598C8.39719 14.8699 8.1177 15.2745 7.85925 15.6935C7.60803 16.1001 7.69023 16.6333 8.03208 16.9662C8.37233 17.297 8.87759 17.3379 9.27017 17.0653C9.6463 16.8042 9.8456 16.277 9.63808 15.8644C9.38245 15.3557 9.05002 14.8883 8.74747 14.397Z" fill="white"/>
</svg>
